<?xml version="1.0" encoding="utf-8"?>
<!-- Generator: Adobe Illustrator 27.9.0, SVG Export Plug-In . SVG Version: 6.00 Build 0)  -->
<svg version="1.1" id="圖層_3" xmlns="http://www.w3.org/2000/svg" xmlns:xlink="http://www.w3.org/1999/xlink" x="0px" y="0px"
	 width="256px" height="56px" viewBox="0 0 256 56" style="enable-background:new 0 0 256 56;" xml:space="preserve">
<style type="text/css">
	.st0{fill:#FFFFFF;}
</style>
<g>
	<g>
		<path class="st0" d="M158.7,1.4c-0.9-0.8-1.9-1.4-3.1-1.4c-1.2,0-2.3,0.4-3.1,1.3s-1.3,1.9-1.3,3.1s0.4,2.2,1.3,3.1
			c0.9,0.9,1.9,1.3,3.1,1.3s2.3-0.4,3.1-1.3c0.8-0.9,1.3-1.9,1.3-3.1S159.6,2.2,158.7,1.4z"/>
		<path class="st0" d="M159.6,40.7V13h-7.7v27.9c0,0.9,0.4,1.8,1.2,2.4c0.7,0.7,1.8,1.1,2.8,1.1s2-0.4,2.8-1.1
			C159.1,42.5,159.6,41.7,159.6,40.7z"/>
		<path class="st0" d="M198.4,15.9l-1.2-3.9c-0.4-1.7-1.4-2.4-3-2.4c-0.4,0-1.1,0.1-1.8,0.4l-33.7,11.5c-1.2,0.4-2,1.1-2.3,1.8
			C156,24,156,25,156.5,26l1.3,3.8c3.1,7.9,8.2,11.3,12.1,12.8c2.5,1.1,5.5,1.4,8.3,1.4l0,0c2.4,0,4.9-0.4,6.9-1.2
			C196.1,39.2,202.1,27.3,198.4,15.9z M178.1,36.9c-1.9,0-3.7-0.4-5.2-0.9c-2.5-1.1-6-3.2-7.7-8.4L165,27l26.1-9l0.1,0.4
			c0.4,1.1,1.1,4.5,0.1,8.4c-1.2,4.4-4,7.6-8.5,9.2C181.2,36.6,179.7,36.9,178.1,36.9z"/>
		<path class="st0" d="M125.3,6.2c0.6-0.8,0.8-1.9,0.6-3.1C125.5,1.8,124.4,0,122,0c-8.6,0-13.3,4.5-13.7,12.8v0.9l-1.2,0.1
			c-0.8,0.1-1.6,0.4-2.3,1.2c-0.3,0.9-0.8,1.8-0.8,2.9s0.4,2,1.1,2.8c0.6,0.7,1.3,1.1,2.3,1.1l1.3,0.1V44h7.6V21.9h5.5
			c0.9,0,1.8-0.4,2.4-1.2c0.7-0.7,1.1-1.8,1.1-2.8c0-1.1-0.4-2-1.1-2.8c-0.7-0.7-1.4-1.2-2.4-1.2H116v-1.1c0-3,0.9-4.6,5.5-5
			C123.3,7.8,124.6,7.2,125.3,6.2z"/>
		<path class="st0" d="M253.2,12.8c-0.6-0.2-1.2-0.4-1.9-0.4c-1.1,0-2.4,0.4-3.2,2.1l-6.4,15.1l-6.2-15.1c-0.8-1.9-2.5-2.1-3.3-2.1
			c-0.6,0-1.2,0.1-1.7,0.4c-0.6,0.2-1.8,1.1-2.3,2.3c-0.4,0.8-0.4,1.7,0,2.4l9.4,22.1L230.7,56h8.4l16-38.3c0.4-0.8,0.4-1.9,0-2.7
			C255.2,14.2,254.5,13.3,253.2,12.8z"/>
		<path class="st0" d="M212.5,12.6c-4.3,0-8.1,1.4-11.1,4.5c-3.1,3.1-4.5,6.9-4.5,11.1s1.4,8.1,4.5,11.1c3.1,3.1,6.9,4.5,11.1,4.5
			c3.9,0,6.2-1.3,7.2-2l0.6-0.4l0.1,2.5h7.6V28c0-4.3-1.4-8.1-4.5-11.1C220.3,14,216.8,12.6,212.5,12.6z M219.7,31.1
			c-0.4,0.9-0.9,1.8-1.7,2.4c-0.7,0.7-1.4,1.3-2.4,1.8c-0.9,0.4-2,0.6-3.1,0.6c-1.2,0-2.1-0.2-3.1-0.6c-0.9-0.4-1.8-0.9-2.4-1.7
			c-0.7-0.7-1.3-1.4-1.7-2.4c-0.4-0.9-0.6-2-0.6-3.1s0.2-2.1,0.6-3.1c0.4-0.9,0.9-1.8,1.7-2.4c0.7-0.7,1.4-1.3,2.4-1.7
			c0.9-0.4,2-0.6,3.1-0.6s2.1,0.2,3.1,0.6c0.9,0.4,1.8,1.1,2.4,1.8c0.7,0.7,1.3,1.4,1.7,2.4c0.4,0.9,0.6,2,0.6,3.1
			C220.2,29.3,220.1,30.2,219.7,31.1z"/>
		<path class="st0" d="M149.4,15.9c-0.2-2-2-3.2-4.5-3.2h-0.7c-4.6,0-7.6,2.8-7.7,2.8l-0.6,0.5v-3.1h-7.6v27.9
			c0,0.9,0.4,1.8,1.2,2.4c0.7,0.7,1.8,1.1,2.8,1.1s2-0.4,2.8-1.1c0.7-0.7,1.2-1.4,1.2-2.4V28.3c0-4.6,5.1-7.2,7.5-7.6
			c0.4-0.1,0.9-0.1,1.3-0.1c0.4,0,0.9,0,1.3-0.1C147.5,20.1,149.8,18.6,149.4,15.9z"/>
	</g>
	<g>
		<path class="st0" d="M6.6,25.3c0-0.4-0.2-0.6-0.5-0.6H1.5v-4h8c0.7,0,1,0.3,1,1v11.1c0.2,1,0.7,2,1.6,3.1c1,1.5,2.6,2.5,4.8,3
			c2.4,0.6,11.5,0.5,27.1-0.3l-1,4.5l-22.4,0.1c-5.8-0.3-9.7-2.3-11.6-5.8c-0.3,0.9-1.1,2.2-2.3,3.5c-1.3,1.3-2.5,2.3-3.9,2.9
			l-2.2-3.5c2.4-1.2,4.1-2.3,4.9-3.5c0.5-0.8,0.8-1.6,1-2.7V25.3z M3.1,9.6c2.3,1.1,4.8,2.9,7.6,5.2l-2.4,3.3
			c-2.9-2.4-5.3-4.1-7.3-5.2L3.1,9.6z M4.3,1C6.5,2,9,3.6,11.7,5.8L9.4,9.1C6.5,6.9,4.1,5.3,2.2,4.4L4.3,1z M21.3,30.5
			c-2.6,1.6-5,2.7-7.2,3.3l-2-3.6c4-1.2,7.7-3,11.2-5.4h-8.3c-0.3,0-0.4-0.2-0.4-0.5v-8.7c0-0.3,0.1-0.5,0.4-0.5h25.7
			c0.3,0,0.5,0.1,0.5,0.5v8.7c0,0.3-0.2,0.5-0.5,0.5H29L25.1,28v10.4h-3.6v-8L21.3,30.5z M25.6,6.6H14V3.2h11.6V0.1h3.8v3.1h11.7
			v3.4H29.4v2.5H43v3.6H12.6V9.2h13V6.6z M18.3,18.3c-0.1,0-0.2,0-0.1,0.1v2.9l0.1,0.2h19l0.2-0.2v-2.9l-0.2-0.1H18.3z M38.7,25.2
			l2.4,2.8c-1.2,1.2-2.7,2.4-4.4,3.8l4.6,3.5L39,38.4c-4.7-3.9-8.8-6.6-12.1-8.3l2.1-3.3c1.4,0.8,3,1.6,4.5,2.7
			C35.7,27.9,37.4,26.4,38.7,25.2z"/>
		<path class="st0" d="M53.6,22.1l-3.9-1.5c4.1-6.3,6.5-13,7.1-20.3l4,0.4c-0.6,3.9-1.3,7.4-2.2,10.4v33h-3.8V20.1L53.6,22.1z
			 M61.1,35.3v-3.6h22.8v-2.8l-22.3,1.1l-0.4-3.7l13.6-0.5v-2.6H63.1c-0.6,0-0.9-0.3-0.9-0.9V9.5c0-0.6,0.3-0.9,0.9-0.9h11.6V6.2
			H62.2V2.6h12.5V0.3h3.8v2.3h13.9v3.6H78.5v2.4h12.3c0.7,0,0.9,0.3,0.9,0.9v12.6c0,0.6-0.3,0.9-0.9,0.9h-0.4l3.6,5.3l-3,2l-1.3-1.9
			l-2,0.1v3H93v3.6h-5.2v4.1c0,1.7-0.8,3-2,3.9c-1.4,0.8-4,0.8-7.8,0v-4c3,0.8,4.9,1,5.6,0.5c0.3-0.2,0.4-0.7,0.4-1.3v-3.2H61.1z
			 M74.7,11.9h-8.6c-0.1,0-0.1,0-0.1,0.2v2.2h8.7V11.9z M74.7,17.3H66v2.3c0,0.1,0,0.2,0.1,0.2h8.6V17.3z M70.4,35.7
			c1.7,1.6,3.3,3.1,4.6,4.7l-3,2.4c-1.6-1.7-3.1-3.3-4.4-4.5L70.4,35.7z M78.5,14.2h9.4v-2.2c0-0.1,0-0.2-0.2-0.2h-9.2V14.2z
			 M78.5,19.9h9.2l0.2-0.2v-2.3h-9.4V19.9z M87.6,23.1h-9.1v2.5l8.9-0.4L86.6,24L87.6,23.1z"/>
	</g>
</g>
</svg>
