<?xml version="1.0" encoding="UTF-8"?>
<svg width="220px" height="40px" viewBox="0 0 220 40" version="1.1" xmlns="http://www.w3.org/2000/svg" xmlns:xlink="http://www.w3.org/1999/xlink">
    <title>logo/web/friday_220x40</title>
    <defs>
        <polygon id="path-1" points="0.25875265 0.34369035 5.40783392 0.34369035 5.40783392 5.49585366 0.25875265 5.49585366"></polygon>
        <polygon id="path-3" points="0.381289309 0.209034995 16.5900619 0.209034995 16.5900619 25.980912 0.381289309 25.980912"></polygon>
        <polygon id="path-5" points="0 33.802948 209.48947 33.802948 209.48947 0.742608696 0 0.742608696"></polygon>
    </defs>
    <g id="logo/web/friday_220x40" stroke="none" stroke-width="1" fill="none" fill-rule="evenodd">
        <g id="遠傳logo" transform="translate(5.000000, 3.000000)">
            <g id="Group-3" transform="translate(87.561837, 0.398918)">
                <mask id="mask-2" fill="white">
                    <use xlink:href="#path-1"></use>
                </mask>
                <g id="Clip-2"></g>
                <path d="M4.65465371,1.09988335 C4.16193286,0.6047614 3.53193286,0.343467656 2.83366431,0.343467656 C2.13391166,0.343467656 1.50391166,0.6047614 1.01119081,1.09988335 C0.518469965,1.59426299 0.25875265,2.225228 0.25875265,2.92077413 C0.25875265,3.6192895 0.518469965,4.25025451 1.01119081,4.74092259 C1.50391166,5.23455992 2.13391166,5.49585366 2.83366431,5.49585366 C3.53193286,5.49585366 4.15896466,5.23604454 4.65168551,4.74389183 C5.14514841,4.25173913 5.40783392,3.62077413 5.40783392,2.92077413 C5.40783392,2.22077413 5.14811661,1.59129374 4.65465371,1.09988335" id="Fill-1" fill="#3C3C3C" mask="url(#mask-2)"></path>
            </g>
            <path d="M92.697636,24.7359067 L92.697636,8.31374337 L88.107318,8.31374337 L88.107318,24.7470414 C88.107318,25.3052598 88.3373534,25.8063203 88.7707102,26.2019724 C89.2114876,26.5976246 89.771735,26.8076988 90.3950565,26.8076988 C91.0161519,26.8076988 91.5786254,26.5976246 92.021629,26.1967762 C92.4542438,25.8063203 92.681311,25.3111983 92.697636,24.7359067" id="Fill-4" fill="#3C3C3C"></path>
            <path d="M103.618972,22.4781654 C102.545968,22.4781654 101.476675,22.2807105 100.526852,21.9147508 C99.0041661,21.3216437 96.9746608,19.9877094 95.9313392,16.9887699 L95.8311625,16.7029799 L111.288795,11.3293849 L111.38823,11.6144327 C111.601198,12.2327784 112.036039,14.3290668 111.467629,16.6079639 C110.803495,19.2565323 109.08194,21.081877 106.346004,22.0320361 C105.505261,22.3245069 104.563601,22.4781654 103.618972,22.4781654 M115.619396,10.0266278 L114.907028,7.7447614 C114.605756,6.77901379 114.025473,6.28983033 113.185473,6.28983033 C112.884943,6.28983033 112.548053,6.35441145 112.185933,6.47986214 L92.178053,13.4353234 C91.473106,13.6802863 91.0108092,14.0336267 90.8015512,14.4894062 C90.5960035,14.9221739 90.618265,15.4648038 90.8646254,16.1054189 L91.7202085,18.3338388 C93.4989011,22.9896182 96.5635654,25.0242948 98.8201378,25.9120997 C100.341339,26.508176 102.043601,26.8266278 103.736216,26.8266278 C105.159466,26.8266278 106.571587,26.5972534 107.811551,26.165228 C114.316357,23.905631 117.743141,16.8150689 115.619396,10.0266278" id="Fill-6" fill="#F5281E"></path>
            <path d="M72.5387491,4.40495228 C72.9038375,3.9269035 73.0136608,3.31969247 72.8607986,2.6026193 C72.6879011,1.78013786 71.982212,0.821813362 70.5641555,0.821813362 C65.4907633,0.821813362 62.7132721,3.42287381 62.5210813,8.33772004 L62.4988198,8.89371156 L61.7768057,8.93602333 C61.2922473,8.97981972 60.8447915,9.20770944 60.4871237,9.59296925 C60.0804806,10.0294486 59.8660283,10.5913786 59.8660283,11.2156628 C59.8660283,11.8451432 60.0804806,12.4130117 60.4856396,12.8532025 C60.8470177,13.2392047 61.2818587,13.4611559 61.7760636,13.5049523 L62.5099505,13.5517179 L62.5099505,26.6319936 L67.0846855,26.6319936 L67.0846855,13.5502333 L70.3422827,13.5502333 C70.8891731,13.5502333 71.3848622,13.3201166 71.7788905,12.8858643 C72.1729187,12.4464157 72.3806926,11.8807741 72.3806926,11.2468399 C72.3806926,10.6225557 72.1729187,10.0628526 71.7766643,9.62488865 C71.3848622,9.18692471 70.8891731,8.95977731 70.3422827,8.95977731 L67.0691025,8.95977731 L67.0691025,8.30134677 C67.0691025,6.58586426 67.5966996,5.56444327 70.2947915,5.41226935 C71.2735548,5.35808059 72.0905512,4.98989396 72.5387491,4.40495228" id="Fill-8" fill="#3C3C3C"></path>
            <g id="Group-12" transform="translate(132.826855, 7.822036)">
                <mask id="mask-4" fill="white">
                    <use xlink:href="#path-3"></use>
                </mask>
                <g id="Clip-11"></g>
                <path d="M15.1524276,0.436182397 C14.8385406,0.304793213 14.4437703,0.228335101 14.0816502,0.228335101 C13.4598127,0.228335101 12.6376219,0.436182397 12.2317208,1.43756098 L8.47175618,10.340106 L4.79490106,1.44721103 C4.34150883,0.330031813 3.24698587,0.209034995 2.79730389,0.209034995 C2.46486572,0.209034995 2.12649117,0.272131495 1.84673852,0.38718982 C1.47348763,0.54233298 0.809353357,1.03448568 0.519954064,1.75378579 C0.326279152,2.23109226 0.336667845,2.71879109 0.543699647,3.20203606 L5.95101413,16.3558006 L1.90907067,25.959088 L6.88377032,25.9813574 L16.434689,3.30224814 C16.6409788,2.83830329 16.6409788,2.22960764 16.4398834,1.70776246 C16.284053,1.3128526 15.9338057,0.771707317 15.1524276,0.436182397" id="Fill-10" fill="#3C3C3C" mask="url(#mask-4)"></path>
            </g>
            <path d="M128.215314,19.0797879 C127.97118,19.6454295 127.646163,20.1286744 127.220968,20.5577306 C126.809873,20.9741676 126.315668,21.3119194 125.750968,21.5568823 C125.189237,21.8055567 124.599307,21.9250689 123.955951,21.9250689 C123.299237,21.9250689 122.708565,21.8055567 122.14535,21.5568823 C121.582876,21.3119194 121.090898,20.9786214 120.681286,20.5629268 C120.270191,20.1479745 119.940721,19.6528526 119.697329,19.0909226 C119.45542,18.5260233 119.337435,17.9410817 119.337435,17.3034358 C119.337435,16.6695016 119.45542,16.0860445 119.695102,15.5218876 C119.939979,14.9555037 120.270191,14.4588971 120.68277,14.0439449 C121.094608,13.6282503 121.57323,13.3016331 122.14535,13.0492471 C122.708565,12.8035419 123.300721,12.6862566 123.955951,12.6862566 C124.599307,12.6862566 125.187753,12.8035419 125.748,13.0492471 C126.315668,13.2964369 126.809873,13.6356734 127.220968,14.051368 C127.646163,14.4796819 127.97118,14.9621845 128.215314,15.5293107 C128.457223,16.0897561 128.572982,16.6695016 128.572982,17.3034358 C128.572982,17.9388547 128.457223,18.5208271 128.215314,19.0797879 M123.955951,8.09580064 C121.426304,8.09580064 119.236516,9.00364793 117.445208,10.791877 C115.656869,12.582333 114.748601,14.7721527 114.748601,17.3034358 C114.748601,19.8354613 115.656869,22.025281 117.445208,23.8172216 C119.236516,25.6069353 121.426304,26.5140403 123.955951,26.5140403 C126.214007,26.5140403 127.579378,25.7791516 128.192311,25.34193 L128.526233,25.101421 L128.588565,26.6246448 L133.1633,26.6246448 L133.1633,17.3034358 C133.1633,14.7721527 132.252806,12.5793637 130.459272,10.7844539 C128.653124,8.99993637 126.461852,8.09580064 123.955951,8.09580064" id="Fill-13" fill="#3C3C3C"></path>
            <path d="M86.7127102,10.0411771 C86.543523,8.85941676 85.5365618,8.15422057 84.0161025,8.15422057 L83.6205901,8.15496288 C80.8794594,8.15496288 79.0488233,9.8273913 79.02953,9.84223754 L78.6585053,10.1896394 L78.6562792,8.3264369 L74.0770919,8.3264369 L74.0845124,24.7738388 C74.0845124,25.3246341 74.3145477,25.8197561 74.7486466,26.2131813 C75.1864558,26.6080912 75.7533816,26.8174231 76.3856078,26.8174231 C77.0096714,26.8174231 77.573629,26.6080912 78.0136643,26.2102121 C78.4462792,25.8197561 78.6726042,25.3216649 78.6726042,24.7738388 L78.6726042,17.4346023 C78.6726042,14.7006681 81.6860671,13.176702 83.0610848,12.9013043 C83.2926042,12.855281 83.5901661,12.833754 83.9047951,12.8144539 C84.1659965,12.8003499 84.4361025,12.7825345 84.6624276,12.7469035 C85.5862792,12.6103181 86.9575866,11.7522057 86.7127102,10.0411771" id="Fill-15" fill="#3C3C3C"></path>
            <mask id="mask-6" fill="white">
                <use xlink:href="#path-5"></use>
            </mask>
            <g id="Clip-18"></g>
            <path d="M172.812191,20.7709226 L176.956537,20.7709226 L176.956537,18.8787699 L172.812191,18.8787699 L172.812191,20.7709226 Z M172.812191,16.9591516 L176.956537,16.9591516 L176.956537,15.1226723 C176.956537,15.0113256 176.900883,14.9556522 176.790318,14.9556522 L172.812191,14.9556522 L172.812191,16.9591516 Z M169.558304,9.55756098 L174.147138,9.55756098 L174.147138,7.99944857 L169.558304,7.99944857 L169.558304,9.55756098 Z M169.558304,6.07983033 L174.147138,6.07983033 L174.147138,4.63232238 L169.558304,4.63232238 L169.558304,6.07983033 Z M166.610141,20.7709226 L170.670636,20.7709226 L170.670636,18.8787699 L166.610141,18.8787699 L166.610141,20.7709226 Z M170.670636,14.9556522 L166.777102,14.9556522 C166.665795,14.9556522 166.610141,15.0113256 166.610141,15.1226723 L166.610141,16.9591516 L170.670636,16.9591516 L170.670636,14.9556522 Z M166.610141,26.4748462 L164.467845,26.4748462 L164.467845,22.6912831 L162.994134,22.6912831 L162.994134,20.7709226 L164.467845,20.7709226 L164.467845,13.5363521 C164.467845,13.2030541 164.634806,13.0352916 164.968728,13.0352916 L170.670636,13.0352916 L170.670636,11.4779215 L163.328057,11.4779215 L163.328057,9.55756098 L167.416749,9.55756098 L167.416749,7.99944857 L164.301625,7.99944857 L164.301625,6.07983033 L167.416749,6.07983033 L167.416749,4.63232238 L163.549929,4.63232238 L163.549929,2.71270414 L167.416749,2.71270414 L167.416749,0.931898197 L169.558304,0.931898197 L169.558304,2.71270414 L174.147138,2.71270414 L174.147138,0.821293743 L176.289435,0.821293743 L176.289435,2.71270414 L179.988551,2.71270414 L179.988551,4.63232238 L176.289435,4.63232238 L176.289435,6.07983033 L179.432756,6.07983033 L179.432756,7.99944857 L176.289435,7.99944857 L176.289435,9.55756098 L180.405583,9.55756098 L180.405583,11.4779215 L172.812191,11.4779215 L172.812191,13.0352916 L178.597951,13.0352916 C178.960071,13.0352916 179.12629,13.2030541 179.12629,13.5363521 L179.12629,20.7709226 L180.405583,20.7709226 L180.405583,22.6912831 L179.12629,22.6912831 L179.12629,24.1655143 C179.12629,25.0280806 178.792367,25.6686957 178.097067,26.1408059 C177.234806,26.6975398 175.705442,26.7806787 173.480035,26.390965 L173.396926,24.0259597 C175.010141,24.4438812 176.011166,24.5270201 176.4,24.2493955 C176.790318,24.0259597 176.956537,23.6926617 176.956537,23.2754825 L176.956537,22.6912831 L166.610141,22.6912831 L166.610141,26.4748462 Z M161.130106,20.7427147 C161.742297,21.9111135 162.270636,23.3304136 162.744064,25.1112195 L160.76947,25.7518346 C160.268587,23.9428208 159.711307,22.4960551 159.211166,21.4946766 L161.130106,20.7427147 Z M157.375336,14.4271262 L157.375336,17.4876776 L157.459187,17.5990244 L160.017774,17.5990244 C160.100883,17.5990244 160.129081,17.5708165 160.129081,17.4876776 L160.129081,14.4271262 L157.375336,14.4271262 Z M157.376078,12.2848144 L160.129081,12.2848144 L160.129081,9.11291622 L157.376078,9.11291622 L157.376078,12.2848144 Z M160.129081,6.94239661 L160.129081,3.85363733 L160.017774,3.77049841 L157.459187,3.77049841 L157.375336,3.85363733 L157.375336,6.94239661 L160.129081,6.94239661 Z M161.937456,19.7413362 L155.539505,19.7413362 C155.344346,19.7413362 155.233781,19.6299894 155.233781,19.4347614 L155.233781,1.93327678 C155.233781,1.73879109 155.344346,1.62744433 155.539505,1.62744433 L161.937456,1.62744433 C162.159329,1.62744433 162.270636,1.73879109 162.270636,1.93327678 L162.270636,19.4347614 C162.270636,19.6299894 162.159329,19.7413362 161.937456,19.7413362 L161.937456,19.7413362 Z M158.293251,21.159894 C158.014982,22.7187487 157.459187,24.4995546 156.624382,26.5579852 L154.565936,25.8349735 C155.400742,23.6926617 155.956537,21.9393213 156.179152,20.5764369 L158.293251,21.159894 Z" id="Fill-17" fill="#F5281E" mask="url(#mask-6)"></path>
            <path d="M201.535071,6.49671262 L201.089841,9.75249205 C200.283233,13.4811241 197.974717,17.292895 194.303057,21.1054083 L192.244611,19.8256628 C194.887049,17.1815483 196.751078,14.7608696 197.7803,12.6460233 C198.419205,11.1992577 198.948286,9.14082715 199.226555,6.49671262 L197.251219,6.49671262 C196.444611,8.88992577 195.526696,10.8370095 194.524929,12.311983 L192.244611,11.4219512 C194.386908,8.13870626 195.693657,4.63276776 196.138887,0.932343584 L198.474859,1.23817603 L197.918322,4.10349947 L208.600124,4.10349947 L209.072067,4.21484624 C209.351078,4.35440085 209.489841,4.77232238 209.489841,5.4678685 L209.351078,16.2907741 C209.211572,21.550053 208.238004,24.7768823 206.486025,25.9742312 C205.456802,26.7254507 203.398357,26.6697773 200.366343,25.8354189 L200.283233,23.0806999 C202.814364,23.9425239 204.455777,24.1377519 205.12288,23.6366914 C205.595565,23.2751856 206.040795,22.5796394 206.402173,21.5218452 C206.764293,20.4091198 206.95871,18.5169671 207.014364,15.9574761 C207.208781,10.0583245 207.208781,6.94209968 207.014364,6.6911983 C206.95871,6.55312831 206.847403,6.49671262 206.707898,6.49671262 L205.56811,6.49671262 C205.511714,10.1978791 204.650194,13.9257688 203.064435,17.7100742 C201.506873,20.8545069 199.198357,23.5535525 196.194541,25.7233298 L194.330512,23.9981972 C200.004965,20.6874867 202.981325,14.8447508 203.20394,6.49671262 L201.535071,6.49671262 Z M188.76811,8.33393425 L186.931537,8.33393425 C186.598357,10.6989396 186.292633,12.3676564 186.013622,13.2302227 L183.705848,12.8969247 C184.567367,10.0583245 185.040053,6.83075292 185.040053,3.2416755 L185.040053,1.79490986 L187.294399,1.79490986 L187.294399,3.2416755 L187.154894,5.96892895 L188.76811,5.96892895 L188.76811,0.820996819 L191.132279,0.820996819 L191.132279,5.96892895 L193.524647,5.96892895 L193.524647,8.33393425 L191.132279,8.33393425 L191.132279,15.066702 L193.302032,13.759491 L194.636979,15.6791092 C193.635212,16.3471898 192.467226,17.0145281 191.132279,17.6544008 L191.132279,26.5858961 L188.76811,26.5858961 L188.76811,18.7671262 L185.068251,20.3259809 L183.788958,18.1829268 C185.819205,17.4599152 187.488816,16.8200424 188.76811,16.2358431 L188.76811,8.33393425 Z" id="Fill-19" fill="#F5281E" mask="url(#mask-6)"></path>
            <path d="M22.2660106,15.5512089 L23.6744205,17.2087911 C22.9843145,17.9273489 22.0997915,18.6451644 21.1061873,19.4186532 L23.7849859,21.49193 L22.4322297,23.3165323 C19.6695795,21.0502545 17.2935371,19.4186532 15.3597562,18.4246978 L16.602689,16.5176988 C17.4315583,16.9601166 18.3435371,17.4567232 19.227318,18.0928844 C20.5251625,17.15386 21.5477067,16.2697667 22.2660106,15.5512089 L22.2660106,15.5512089 Z M10.3041731,11.5160021 C10.2218057,11.5160021 10.1936078,11.5434677 10.2218057,11.5983987 L10.2218057,13.2849311 L10.3041731,13.3947932 L21.4645972,13.3947932 L21.5751625,13.2849311 L21.5751625,11.5983987 L21.4645972,11.5160021 L10.3041731,11.5160021 Z M14.6139965,4.66223754 L7.81830742,4.66223754 L7.81830742,2.64537646 L14.6139965,2.64537646 L14.6139965,0.820774125 L16.8520177,0.820774125 L16.8520177,2.64537646 L23.7026184,2.64537646 L23.7026184,4.66223754 L16.8520177,4.66223754 L16.8520177,6.15502651 L24.7800742,6.15502651 L24.7800742,8.28323436 L6.96124028,8.28323436 L6.96124028,6.15502651 L14.6139965,6.15502651 L14.6139965,4.66223754 Z M12.072477,18.6733722 C10.5253039,19.5849311 9.11615194,20.2485578 7.84576325,20.6078367 L6.68519788,18.4796288 C9.00558657,17.7885366 11.1886961,16.7106999 13.2330424,15.3017922 L8.3429364,15.3017922 C8.17745936,15.3017922 8.09434982,15.19193 8.09434982,14.9981866 L8.09434982,9.88588547 C8.09434982,9.6921421 8.17745936,9.60900318 8.3429364,9.60900318 L23.3983781,9.60900318 C23.592053,9.60900318 23.7026184,9.6921421 23.7026184,9.88588547 L23.7026184,14.9981866 C23.7026184,15.19193 23.592053,15.3017922 23.3983781,15.3017922 L16.5752332,15.3017922 L14.3097562,17.1813256 L14.3097562,23.2883245 L12.1830424,23.2883245 L12.1830424,18.6184411 L12.072477,18.6733722 Z M2.09933216,1.34558855 C3.42537456,1.98174973 4.86198233,2.92151644 6.46406714,4.19235419 L5.08311307,6.12681866 C3.42537456,4.82851538 2.01696466,3.91695652 0.856399293,3.39139979 L2.09933216,1.34558855 Z M1.38102827,6.43116649 C2.70781272,7.09479321 4.19933216,8.11695652 5.82887279,9.49839873 L4.39300707,11.4328632 C2.67961484,10.0232131 1.27120495,9.02925769 0.111381625,8.3930965 L1.38102827,6.43116649 Z M3.45283039,15.6336055 C3.45283039,15.4123966 3.34300707,15.3017922 3.14933216,15.3017922 L0.49724735,15.3017922 L0.49724735,12.9531177 L5.19367845,12.9531177 C5.6084841,12.9531177 5.80141696,13.1461188 5.80141696,13.5603287 L5.80141696,20.08228 C5.91198233,20.6635101 6.18802473,21.2432556 6.71339576,21.8786744 C7.29367845,22.7627678 8.25982686,23.3714634 9.5309576,23.6476034 C10.9668233,24.0068823 16.2991908,23.9512089 25.4152686,23.45386 L24.80753,26.0794168 L11.6851272,26.1343478 C8.25982686,25.9413468 5.99509187,24.7811135 4.89018021,22.7353022 C4.72396113,23.2883245 4.25424382,24.0068823 3.53593993,24.7811135 C2.79018021,25.5263945 2.04442049,26.1068823 1.27120495,26.4661612 L7.4204947e-05,24.394369 C1.43668198,23.7032768 2.40283039,23.0396501 2.84509187,22.3485578 C3.12187633,21.8786744 3.31480919,21.3820679 3.45283039,20.7733722 L3.45283039,15.6336055 Z" id="Fill-20" fill="#3C3C3C" mask="url(#mask-6)"></path>
            <path d="M50.9877774,14.335228 L45.6279541,14.335228 L45.6279541,15.7998091 L50.8490141,15.5511347 L50.352583,14.8325769 L50.9877774,14.335228 Z M45.6279541,12.4282291 L51.0434311,12.4282291 L51.1539965,12.2894168 L51.1539965,10.9361824 L45.6279541,10.9361824 L45.6279541,12.4282291 Z M45.6279541,9.1390456 L51.1539965,9.1390456 L51.1539965,7.86820785 C51.1539965,7.78581124 51.1265406,7.75834571 51.0434311,7.75834571 L45.6279541,7.75834571 L45.6279541,9.1390456 Z M40.8491555,21.7412725 C41.8716996,22.6535737 42.8111343,23.5651326 43.556894,24.4766914 L41.8160459,25.8588759 C40.9048092,24.8359703 40.0210283,23.951877 39.2196148,23.2333192 L40.8491555,21.7412725 Z M43.3906749,10.9361824 L38.3083781,10.9361824 L38.3083781,12.2894168 C38.2801802,12.373298 38.3083781,12.4007635 38.3632898,12.4282291 L43.3906749,12.4282291 L43.3906749,10.9361824 Z M43.3906749,7.75834571 L38.3632898,7.75834571 C38.3083781,7.75834571 38.2801802,7.78581124 38.3083781,7.86820785 L38.3083781,9.1390456 L43.3906749,9.1390456 L43.3906749,7.75834571 Z M35.4069647,21.4643902 L35.4069647,19.3369247 L48.7779541,19.3369247 L48.7779541,17.7068081 L35.6837491,18.3414846 L35.4351625,16.1858112 L43.3906749,15.8814634 L43.3906749,14.335228 L36.5949859,14.335228 C36.2358339,14.335228 36.0696148,14.1414846 36.0696148,13.7822057 L36.0696148,6.37616119 C36.0696148,6.01688229 36.2358339,5.82388123 36.5949859,5.82388123 L43.3906749,5.82388123 L43.3906749,4.41423118 L36.0696148,4.41423118 L36.0696148,2.28676564 L43.3906749,2.28676564 L43.3906749,0.93204666 L45.6279541,0.93204666 L45.6279541,2.28676564 L53.7786254,2.28676564 L53.7786254,4.41423118 L45.6279541,4.41423118 L45.6279541,5.82388123 L52.8391908,5.82388123 C53.2257986,5.82388123 53.3912756,6.01688229 53.3912756,6.37616119 L53.3912756,13.7822057 C53.3912756,14.1414846 53.2257986,14.335228 52.8391908,14.335228 L52.5898622,14.335228 L54.717318,17.4573913 L52.97647,18.6458324 L52.2032544,17.5130647 L51.0434311,17.5954613 L51.0434311,19.3369247 L54.1095795,19.3369247 L54.1095795,21.4643902 L51.0434311,21.4643902 L51.0434311,23.8969459 C51.0434311,24.9191092 50.6011696,25.6651326 49.8554099,26.1632238 C49.0539965,26.6316225 47.5350212,26.6316225 45.297742,26.1342736 L45.297742,23.7855992 C47.037106,24.2562248 48.1427597,24.366087 48.5568233,24.0624814 C48.7223004,23.9236691 48.7779541,23.675737 48.7779541,23.3164581 L48.7779541,21.4643902 L35.4069647,21.4643902 Z M31.0422297,13.7265323 L28.7774947,12.8691622 C31.1535371,9.19471898 32.561947,5.21518558 32.9210989,0.959512195 L35.2689435,1.20892895 C34.9097915,3.5011877 34.4949859,5.54699894 33.9710989,7.28772004 L33.9710989,26.6316225 L31.7330777,26.6316225 L31.7330777,12.5937646 L31.0422297,13.7265323 Z" id="Fill-21" fill="#3C3C3C" mask="url(#mask-6)"></path>
        </g>
    </g>
</svg>