<?xml version="1.0" encoding="utf-8"?>
<!-- Generator: Adobe Illustrator 29.0.1, SVG Export Plug-In . SVG Version: 9.03 Build 54978)  -->
<svg version="1.1" id="圖層_1_拷貝" xmlns="http://www.w3.org/2000/svg" xmlns:xlink="http://www.w3.org/1999/xlink" x="0px"
	 y="0px" width="190px" height="41.8px" viewBox="0 0 190 41.8" style="enable-background:new 0 0 190 41.8;" xml:space="preserve">
<style type="text/css">
	.st0{fill:#FFFFFF;}
</style>
<g>
	<g>
		<path class="st0" d="M40.8,1c-0.6-0.6-1.4-1-2.3-1s-1.7,0.3-2.3,1s-1,1.4-1,2.3s0.3,1.7,1,2.3s1.4,1,2.3,1s1.7-0.3,2.3-1
			c0.6-0.6,1-1.4,1-2.3S41.5,1.6,40.8,1z"/>
		<path class="st0" d="M41.5,30.3V9.6h-5.8v20.8c0,0.7,0.3,1.3,0.9,1.8c0.5,0.5,1.3,0.8,2.1,0.8s1.5-0.3,2.1-0.8
			C41.2,31.7,41.5,31.1,41.5,30.3z"/>
		<path class="st0" d="M70.5,11.8l-0.9-2.9c-0.3-1.2-1.1-1.8-2.2-1.8c-0.3,0-0.8,0.1-1.3,0.3L40.8,16c-0.9,0.3-1.5,0.8-1.7,1.3
			c-0.3,0.5-0.3,1.2,0.1,2l1,2.8c2.3,5.9,6.1,8.4,9,9.6c1.9,0.8,4.1,1.1,6.2,1.1l0,0c1.8,0,3.6-0.3,5.1-0.9
			C68.8,29.3,73.2,20.3,70.5,11.8z M55.3,27.5c-1.4,0-2.7-0.3-3.9-0.7c-1.9-0.8-4.5-2.4-5.8-6.3l-0.1-0.3l19.6-6.8l0.1,0.3
			c0.3,0.8,0.8,3.4,0.1,6.3c-0.9,3.3-3,5.7-6.4,6.9C57.6,27.3,56.5,27.5,55.3,27.5z"/>
		<path class="st0" d="M15.9,4.6c0.4-0.6,0.6-1.4,0.4-2.3C16,1.3,15.2,0,13.4,0C7,0,3.5,3.3,3.2,9.5v0.7l-0.9,0.1
			c-0.6,0.1-1.2,0.3-1.7,0.9C0.3,11.8,0,12.5,0,13.3s0.3,1.5,0.8,2.1c0.4,0.5,1,0.8,1.7,0.8l1,0.1v16.5h5.7V16.3h4.1
			c0.7,0,1.3-0.3,1.8-0.9c0.5-0.5,0.8-1.3,0.8-2.1s-0.3-1.5-0.8-2.1c-0.5-0.5-1.1-0.9-1.8-0.9H9.1V9.5c0-2.2,0.7-3.5,4.1-3.7
			C14.4,5.8,15.4,5.4,15.9,4.6z"/>
		<path class="st0" d="M111.4,9.5c-0.4-0.2-0.9-0.3-1.4-0.3c-0.8,0-1.8,0.3-2.4,1.6L102.8,22l-4.6-11.2c-0.6-1.4-1.9-1.6-2.5-1.6
			c-0.4,0-0.9,0.1-1.2,0.3c-0.4,0.2-1.3,0.8-1.7,1.7c-0.3,0.6-0.3,1.2,0,1.8l7,16.5l-5.1,12.2h6.3l12-28.6c0.3-0.6,0.3-1.4,0-2
			C112.9,10.6,112.4,9.9,111.4,9.5z"/>
		<path class="st0" d="M81,9.3c-3.2,0-6,1.1-8.3,3.4s-3.4,5.1-3.4,8.3s1.1,6,3.4,8.3s5.1,3.4,8.3,3.4c2.9,0,4.6-1,5.4-1.5l0.4-0.3
			l0.1,1.9h5.7V20.9c0-3.2-1.1-6-3.4-8.3C86.9,10.4,84.2,9.3,81,9.3z M86.4,23.2c-0.3,0.7-0.7,1.3-1.2,1.8s-1.1,1-1.8,1.3
			c-0.7,0.3-1.5,0.4-2.3,0.4c-0.9,0-1.6-0.2-2.3-0.4c-0.7-0.3-1.3-0.7-1.8-1.2s-1-1.1-1.2-1.8c-0.3-0.7-0.4-1.5-0.4-2.3
			s0.2-1.6,0.4-2.3c0.3-0.7,0.7-1.3,1.2-1.8s1.1-1,1.8-1.2c0.7-0.3,1.5-0.4,2.3-0.4s1.6,0.2,2.3,0.4c0.7,0.3,1.3,0.8,1.8,1.3
			s1,1.1,1.2,1.8c0.3,0.7,0.4,1.5,0.4,2.3C86.8,21.8,86.7,22.5,86.4,23.2z"/>
		<path class="st0" d="M33.9,11.8c-0.2-1.5-1.5-2.4-3.4-2.4H30c-3.5,0-5.7,2.1-5.8,2.1l-0.4,0.4V9.6h-5.7v20.8
			c0,0.7,0.3,1.3,0.9,1.8c0.5,0.5,1.3,0.8,2.1,0.8s1.5-0.3,2.1-0.8c0.5-0.5,0.9-1.1,0.9-1.8v-9.3c0-3.5,3.8-5.4,5.6-5.7
			c0.3-0.1,0.7-0.1,1-0.1s0.7,0,1-0.1C32.5,15,34.2,13.9,33.9,11.8z"/>
	</g>
	<g>
		<path class="st0" d="M145.3,29.3c0.8,0.2,1.5,0.2,1.9,0.1c0.6-0.3,0.9-0.6,0.9-1V18.2h-7.8c-1.1,0-1.6-0.5-1.6-1.6v-4.5h-3.5
			l-0.1,0.2c-0.7,2.9-3.2,5.2-7.6,6.6l-1.8-2.8V32h-3.6V9.5c0-0.6,0.3-0.9,0.9-0.9h6.6l-1.3-3.1h-7.6V2.2h14.4V0.6h3.6v1.7h14.1v3.4
			h-7.3l-1,3.1h6.3c0.6,0,0.9,0.3,0.9,0.9v20.5c0,1-0.6,1.8-1.7,2.4c-1.2,0.6-3.3,0.6-6.2,0.2l-0.2-3.4h-15c-0.6,0-0.9-0.3-0.9-0.9
			v-8.2c0-0.6,0.3-0.9,0.9-0.9H145c0.6,0,0.9,0.3,0.9,0.9v8.2C145.9,28.8,145.7,29.1,145.3,29.3z M131.5,12.1H126
			c-0.2,0-0.3,0.1-0.3,0.3v3.5l1.1-0.3c2.5-0.9,4-2,4.6-3.2L131.5,12.1z M131.4,22.5c-0.1,0-0.2,0-0.1,0.1v3.2l0.1,0.2h10.8
			c0.1,0,0.2-0.1,0.2-0.2v-3.2l-0.2-0.1H131.4z M140.7,8.7c0.7-1.6,1-2.6,1.1-3.1h-9.7l1.2,3.1H140.7z M148.1,15v-2.6
			c0-0.2-0.1-0.3-0.3-0.3H142v2c0,0.6,0.3,0.9,0.8,0.9H148.1z"/>
		<path class="st0" d="M177.7,7.5h-7.2c-0.3,0-0.5,0.1-0.5,0.4v2.3h5.7l0.6,0.1c0.2,0.1,0.3,0.3,0.4,0.7c0.2,0.9,0.2,3.9,0,8.8
			c-0.1,3.7-0.9,5.9-2.4,6.8c-1,0.5-2.6,0.5-4.7,0.2l-0.3-3.7c0.9,0.2,1.6,0.4,2.3,0.4c0.6,0,0.9,0,1.1-0.2l0.3-0.9l0.1-1
			c0.2-4.8,0.2-7.3,0-7.6l-0.4-0.1H170v2.1c0,6.4-2.4,11.8-7.3,16.3l-3.1-2c3-3,5-5.9,5.9-8.7c-2.9,1.8-5.5,3.3-7.9,4.5l-1.9-3.3
			l3.8-1.8V10.4h-2.7V6.8h2.7V0.7h3.6v6.1h2.4v3.5h-2.4v8.5l1.5-1.2l1.4,1.6c0.2-1.4,0.3-2.8,0.4-4.4V4.9c0-0.7,0.4-1,1-1h10.1V0.6
			l3.6-0.4l-0.1,3.8h3.3L182.8,2l2.8-2c1.5,1.6,2.9,3.6,4.4,6.2L187,8l-1.3-2.1v1.6h-4.5c0.2,4.4,0.7,8.1,1.4,11.2
			c0.9-2.1,1.5-4.9,1.8-8.6l3.4,0.3c-0.4,5.2-1.7,9.5-3.9,13.1l1.2,2.7c0.3,0.7,0.6,1.1,0.9,1.1c0.1,0,0.2-0.1,0.2-0.3
			c0.1-0.5,0.2-1.8,0.2-3.9l3.5,0.9c-0.2,3.3-0.5,5.4-0.8,6.3c-0.2,0.6-0.6,1.1-0.9,1.3c-0.5,0.3-0.9,0.4-1.4,0.4
			c-0.7,0-1.3-0.3-2-0.9c-1.1-1-2.1-2.6-3.1-4.7c-2.2,2.2-4.9,4.2-8,5.9l-2.7-2.8c4.6-2.5,7.7-4.8,9.2-6.8
			C178.8,19.1,178,13.9,177.7,7.5z"/>
	</g>
</g>
</svg>
