<svg width="80" height="32" xmlns="http://www.w3.org/2000/svg" xmlns:xlink="http://www.w3.org/1999/xlink"><defs><path id="a" d="M.155.215h44.479V12.66H.155z"/><path id="c" d="M0 .274h15.324v15.409H0z"/></defs><g fill="none" fill-rule="evenodd"><g transform="translate(34.4 6.126)"><mask id="b" fill="#fff"><use xlink:href="#a"/></mask><path d="M11.066 8.88a.943.943 0 00-.614-.225H7.1a.492.492 0 00-.458.676l.565 1.448a.492.492 0 00.918-.357L7.82 9.64h2.551v1.715a.149.149 0 01-.148.15H5.051a.15.15 0 01-.149-.15V8.31a.493.493 0 00-.984 0v3.077c0 .608.492 1.102 1.101 1.102h5.235c.61 0 1.103-.494 1.103-1.102V9.503a.833.833 0 00-.29-.624zm33.056-5.79h-1.416V.86a.51.51 0 00-1.022 0v2.23h-6.007a.513.513 0 000 1.024h6.007v5.97c0 .429-.172.815-.454 1.099a1.545 1.545 0 01-1.098.454c-.431 0-.815-.173-1.1-.456a1.55 1.55 0 01-.454-1.097V8.653a.511.511 0 00-1.021 0v1.431a2.575 2.575 0 005.149 0v-5.97h1.416a.51.51 0 100-1.023zM35.877.86a.513.513 0 00-.51-.51.51.51 0 00-.465.296v.002c-.15.33-.517 1.032-1.13 1.877a14.473 14.473 0 01-2.62 2.75.512.512 0 00.32.91.5.5 0 00.318-.112 15.51 15.51 0 001.564-1.446v7.386a.51.51 0 001.022 0v-8.59c.075-.101.152-.2.222-.299.659-.905 1.053-1.657 1.232-2.054a.49.49 0 00.047-.21zm3.707 7.413a.518.518 0 00.735.03.519.519 0 00.03-.736L38.45 5.51a.522.522 0 00-.764 0l-1.899 2.057a.517.517 0 00.03.736.526.526 0 00.735-.03v-.002l1.515-1.64 1.517 1.642zm-37.283.382h-.006a.492.492 0 00-.487.492v.018c0 .064-.006.422-.091.873-.088.463-.26 1.02-.569 1.468a.493.493 0 10.812.557c.418-.614.62-1.294.723-1.841.105-.547.11-.965.11-1.062v-.017a.492.492 0 00-.492-.488zm26.069 2.858h-7.08c-1.016-.002-1.616-.335-1.994-.654a2.701 2.701 0 01-.462-.51V6.535a1.16 1.16 0 00-1.16-1.161h-.997a.488.488 0 000 .974h.956a.23.23 0 01.228.228v3.454c0 .26-.095.6-.288.885a1.64 1.64 0 01-.869.656.49.49 0 00.149.953A.497.497 0 0017 12.5a2.606 2.606 0 001.382-1.043l.048-.074c.07.073.146.145.232.219.523.452 1.384.888 2.617.888h7.091a.487.487 0 000-.976zM12.742 8.968a.49.49 0 00-.638-.279.492.492 0 00-.28.637l1.028 2.637a.496.496 0 00.637.281.495.495 0 00.282-.639l-1.03-2.637zM3.7.273a.487.487 0 00-.66.203A10.689 10.689 0 01.339 3.758a.493.493 0 00-.076.686.49.49 0 00.684.076c.317-.255.608-.517.874-.78v3.635a.488.488 0 10.975 0V2.639c.523-.67.885-1.284 1.108-1.707A.49.49 0 003.7.273zM25.03 9.87a.487.487 0 100 .975h1.338c.469 0 .84-.383.84-.845V7.37h1.046a.487.487 0 000-.975h-1.046v-.967l.851-1.481a.486.486 0 000-.486.485.485 0 00-.422-.245h-2.85a.489.489 0 000 .975h2.007l-.496.864a.5.5 0 00-.064.244v1.096H24.42a.488.488 0 000 .975h1.814v2.5H25.03zm-1.393-5.34a.487.487 0 00-.488-.485h-1.727c.004-.202.004-.39.004-.557 0-.242.005-.445 0-.598h1.414a.48.48 0 00.342-.143.483.483 0 00.144-.345V.704a.488.488 0 10-.974 0v1.211h-2.471a.487.487 0 000 .974h.57c.003.15 0 .353 0 .6v.002c0 .76-.03 1.925-.177 3.119-.145 1.194-.414 2.419-.848 3.263a.49.49 0 00.213.657.487.487 0 00.657-.214c.52-1.027.79-2.333.946-3.588.074-.593.118-1.177.147-1.707h1.266c-.01.39-.034.99-.09 1.686-.091 1.128-.275 2.512-.615 3.661a.49.49 0 00.935.278c.373-1.26.557-2.692.653-3.859.095-1.166.099-2.088.099-2.256zm.656-2.011h3.976c.27 0 .485-.22.485-.488a.486.486 0 00-.485-.488h-3.203l.302-.628a.488.488 0 00-.88-.422l-.634 1.327a.483.483 0 00.027.47c.09.142.245.229.412.229zM3.918 6.446a.488.488 0 10.975 0V2.427a.488.488 0 00-.975 0v4.019zm1.76 1.367c.023 0 .043 0 .064-.003A9.326 9.326 0 009.266 6.6c.973.638 2.148 1.17 3.468 1.365.025.002.048.005.072.005a.492.492 0 00.484-.419c.001-.023.004-.045.004-.07A.49.49 0 0012.876 7c-.995-.144-1.918-.519-2.72-.992a.143.143 0 01.02-.017c1.115-.85 2.18-1.806 2.575-2.578.082-.168.17-.373.174-.64a.84.84 0 00-.055-.308.773.773 0 00-.368-.406 1.112 1.112 0 00-.519-.112h-4.85L7.738.96a.487.487 0 00-.831-.51L5.845 2.178a.484.484 0 00-.01.493.489.489 0 00.424.25h5.631c-.164.285-.479.656-.865 1.043A14.304 14.304 0 019.29 5.428c-.868-.651-1.528-1.38-1.878-1.892a.49.49 0 00-.68-.124.487.487 0 00-.122.681c.376.545.986 1.226 1.787 1.874a8.298 8.298 0 01-2.783.876.49.49 0 00-.42.547.49.49 0 00.484.423zm10.98-3.962a.499.499 0 00-.008.704.497.497 0 00.359.153.493.493 0 00.349-.14l1.553-1.506a.502.502 0 000-.721L17.358.834a.5.5 0 10-.696.719l1.182 1.148-1.182 1.147-.004.003z" fill="#231916" mask="url(#b)"/></g><path d="M37.06 26.82h2.293c.239 0 .41.108.41.344s-.171.343-.41.343h-2.685c-.313 0-.448-.175-.448-.402v-5.183c0-.228.135-.404.448-.404h2.685c.239 0 .41.108.41.344s-.171.345-.41.345H37.06v1.961h2.042c.239 0 .411.109.411.345 0 .235-.172.345-.41.345H37.06v1.961zm5.284.1c1.03 0 1.392-.892 1.392-1.649 0-.758-.363-1.65-1.392-1.65-1.03 0-1.394.892-1.394 1.65 0 .757.364 1.649 1.394 1.649zm2.184.278c0 .261-.228.362-.39.362-.173 0-.393-.1-.393-.362v-.312h-.02a1.7 1.7 0 01-1.381.674c-1.43 0-2.232-1.103-2.232-2.289 0-1.187.802-2.289 2.232-2.289.583 0 .992.218 1.382.597h.02v-.236c0-.26.22-.36.392-.36.162 0 .39.1.39.36v3.855zm2.649-4.216c.696 0 1.69.328 1.69.791 0 .16-.125.303-.382.303-.363 0-.505-.454-1.308-.454-.476 0-.886.186-.886.564 0 .782 2.708.698 2.708 1.992 0 .935-.905 1.382-1.85 1.382-1.068 0-1.908-.472-1.908-.85 0-.202.162-.338.344-.338.372 0 .677.548 1.592.548.612 0 .984-.304.984-.607 0-.874-2.71-.823-2.71-2.07 0-.824.878-1.26 1.726-1.26m2.348.723c-.096-.252-.114-.33-.114-.412 0-.187.19-.312.38-.312a.43.43 0 01.421.278l1.163 3.071h.018l1.146-3.07a.405.405 0 01.401-.28c.191 0 .381.126.381.313 0 .082-.018.16-.114.412l-2.117 5.343a.423.423 0 01-.41.277c-.192 0-.382-.126-.382-.311 0-.084.017-.16.123-.412l.535-1.254-1.431-3.643zm7.959-.43c.09-.222.22-.294.43-.294s.342.072.43.294c.341.853 1.495 3.324 1.495 3.324h.018l.888-4.787c.047-.244.2-.346.458-.346.238 0 .382.151.382.338 0 .092-1.079 5.265-1.079 5.265-.057.263-.182.49-.6.49-.325 0-.498-.087-.658-.49-.3-.741-1.324-2.876-1.324-2.876h-.02s-1.024 2.135-1.322 2.876c-.162.403-.334.49-.658.49-.42 0-.544-.227-.601-.49 0 0-1.078-5.173-1.078-5.265 0-.187.143-.338.381-.338.258 0 .41.102.458.346l.887 4.787h.019s1.153-2.471 1.494-3.324m6.526 3.644c1.03 0 1.393-.892 1.393-1.649 0-.758-.362-1.65-1.393-1.65-1.03 0-1.393.892-1.393 1.65 0 .757.363 1.649 1.393 1.649zm2.185.278c0 .261-.23.362-.392.362-.171 0-.39-.1-.39-.362v-.312h-.021c-.36.455-.84.674-1.382.674-1.432 0-2.233-1.103-2.233-2.289 0-1.187.801-2.289 2.233-2.289.584 0 .992.218 1.382.597h.02v-.236c0-.26.22-.36.391-.36.163 0 .392.1.392.36v3.855zm1.877-.034c0 .244-.163.396-.42.396-.258 0-.42-.152-.42-.396v-5.302c0-.244.162-.395.42-.395.257 0 .42.151.42.395v5.302zm1.947 0c0 .244-.163.396-.422.396-.256 0-.42-.152-.42-.396v-5.302c0-.244.164-.395.42-.395.26 0 .422.151.422.395v5.302zM74.374 25c0-.638-.42-1.378-1.346-1.378-1.04-.035-1.41.698-1.44 1.379h2.786zm-2.786.557c0 .766.555 1.363 1.498 1.363 1.118 0 1.402-.606 1.718-.606.153 0 .304.118.304.328 0 .362-1.038.918-2.032.918-1.621 0-2.328-1.103-2.328-2.289 0-1.212.859-2.289 2.28-2.289 1.384 0 2.186 1.102 2.186 2.18 0 .26-.106.395-.467.395h-3.159zm4.695-3.695c0-.244.162-.395.42-.395.257 0 .419.151.419.395v1.12h.412c.28 0 .42.117.42.319s-.14.32-.42.32h-.412v3.543c0 .244-.162.396-.42.396-.257 0-.419-.152-.419-.396v-3.542h-.414c-.276 0-.42-.119-.42-.321s.144-.319.42-.319h.414v-1.12z" fill="#231916"/><path d="M15.916 21.602c.973-.058 1.895 1.956 2.304 2.54.264.382.528.502.824.858.104.122.612.394.778.41.98.102 1.602-.238 2.065-.366.627-.177 1.014-.192 1.543-.51.504-.304 4.309-1.9 4.515-.608.161.997-2.58 2.62-3.192 3.031-.13.087-.177.308-.325.378-.681.315-3.328 1.353-4.242 1.126-1.354-.333-3.075-3.39-3.636-4.558-.094-.19-1.34-2.26-.634-2.301" fill="#E3007E"/><path d="M22.046 22.616a.72.72 0 01-.28-.98 10.652 10.652 0 001.34-4.974c.002-.072.002-.146.002-.218 0-2.098-.607-4.057-1.656-5.712a10.725 10.725 0 00-4.316-3.876.724.724 0 01-.33-.966.723.723 0 01.967-.328c2.011.99 3.705 2.52 4.896 4.399a12.072 12.072 0 011.881 6.483l-.002.246a12.094 12.094 0 01-1.522 5.646.719.719 0 01-.98.28" fill="#E3007E"/><path d="M31.19 14.46a16.427 16.427 0 00-4.744-7.958.721.721 0 10-.98 1.057 15.015 15.015 0 012.986 3.843 13.656 13.656 0 00-8.57-3.038c-1.25 0-2.522.175-3.78.535a13.587 13.587 0 00-7.683 5.71.72.72 0 101.211.782 12.14 12.14 0 016.87-5.105 12.21 12.21 0 013.382-.48 12.22 12.22 0 018.658 3.614c-.062 0-.123-.003-.183-.002a5.38 5.38 0 00-2.246.492c-.54.246-.853.493-.886.52a.72.72 0 10.9 1.125 3.3 3.3 0 01.696-.384c.39-.163.917-.312 1.536-.312a4.22 4.22 0 011.827.43.72.72 0 00.766-.095.714.714 0 00.24-.735" fill="#119F35"/><path d="M19.788 15.645a2.494 2.494 0 11-4.989.002 2.494 2.494 0 014.99-.002" fill="#E3007E"/><g transform="translate(.8 2.926)"><mask id="d" fill="#fff"><use xlink:href="#c"/></mask><path d="M1.455 14.931a.72.72 0 01-.69.751.724.724 0 01-.753-.69C.006 14.789 0 14.593 0 14.39c0-3.302 1.3-6.332 3.428-8.574 1.902-2 4.473-3.379 7.373-3.764a11.958 11.958 0 00-4.24-.254.72.72 0 01-.799-.632.717.717 0 01.63-.8 13.454 13.454 0 018.587 1.874.72.72 0 01-.045 1.258 12.054 12.054 0 00-3.835 3.129.723.723 0 01-1.014.106.72.72 0 01-.106-1.014 13.536 13.536 0 012.432-2.336A10.97 10.97 0 004.473 6.81a10.978 10.978 0 00-3.018 8.12" fill="#007CC4" mask="url(#d)"/></g><path d="M9.378 17.583a.72.72 0 00-.944.383 12.319 12.319 0 00-.97 4.791l.003.163c-.977-2.122-1.554-4.684-1.553-7.44v-.222c.032-2.85.707-5.563 1.764-7.723a.72.72 0 10-1.295-.631C5.225 9.27 4.51 12.185 4.474 15.24v.238c0 3.205.717 6.177 1.963 8.618a10.838 10.838 0 01-3.548-4.07.721.721 0 00-1.287.648 12.22 12.22 0 006.812 6.036.723.723 0 00.735-.155.724.724 0 00.197-.727 10.992 10.992 0 01-.439-3.072c0-1.434.282-2.874.855-4.23a.722.722 0 00-.384-.944" fill="#F6B046"/></g></svg>