<svg xmlns="http://www.w3.org/2000/svg" xmlns:xlink="http://www.w3.org/1999/xlink" width="64" height="22" viewBox="0 0 64 22">
    <defs>
        <path id="prefix__a" d="M0 0.579L6.97 0.579 6.97 11.012 0 11.012z"/>
        <path id="prefix__c" d="M0.68 0.528L30.071 0.528 30.071 18.963 0.68 18.963z"/>
    </defs>
    <g fill="none" fill-rule="evenodd">
        <path fill="#000" d="M10.262 4.792H8.723c-.236 0-.428.191-.428.428v9.578c0 .236.192.428.428.428h1.54c.236 0 .427-.192.427-.428V5.22c0-.237-.191-.428-.428-.428" transform="translate(0 1)"/>
        <g transform="translate(0 1) translate(0 4.213)">
            <mask id="prefix__b" fill="#fff">
                <use xlink:href="#prefix__a"/>
            </mask>
            <path fill="#000" d="M6.542 8.618H2.395V1.007c0-.237-.192-.428-.429-.428H.427C.191.58 0 .77 0 1.007v9.578c0 .236.191.427.427.427h6.115c.236 0 .428-.191.428-.427v-1.54c0-.236-.192-.427-.428-.427" mask="url(#prefix__b)"/>
        </g>
        <path fill="#000" d="M29.419 7.187c.236 0 .428-.192.428-.428V5.22c0-.237-.192-.428-.428-.428h-6.115c-.236 0-.428.191-.428.428v9.578c0 .236.192.427.428.427h6.115c.236 0 .428-.19.428-.427v-1.54c0-.236-.192-.427-.428-.427H25.27v-1.625h4.149c.236 0 .428-.191.428-.427v-1.54c0-.236-.192-.427-.428-.427H25.27V7.187h4.149zM20.824 4.792h-1.54c-.235 0-.427.191-.427.428v5.542l-4.028-5.76c-.115-.163-.285-.21-.474-.21-.024-.004-.049 0-.073 0h-1.54c-.236 0-.428.191-.428.428v9.578c0 .236.192.428.428.428h1.54c.236 0 .427-.192.427-.428V9.01l4.2 6.005c.016.021.032.04.05.06.072.084.177.142.295.15h1.57c.236 0 .428-.191.428-.427V5.22c0-.237-.192-.428-.428-.428" transform="translate(0 1)"/>
        <g transform="translate(0 1) translate(33.185 .262)">
            <mask id="prefix__d" fill="#fff">
                <use xlink:href="#prefix__c"/>
            </mask>
            <path fill="#08BF5B" d="M29.002.528H1.749C1.16.528.68 1.006.68 1.597v16.297c0 .59.48 1.069 1.07 1.069h27.252c.59 0 1.069-.478 1.069-1.07V1.598c0-.591-.48-1.07-1.07-1.07" mask="url(#prefix__d)"/>
        </g>
        <path fill="#FFF" d="M42.514 7.98c0-.622-.439-1.097-1.036-1.097H40.2v2.192h1.278c.597 0 1.036-.475 1.036-1.096m1.948 0c0 1.62-1.303 2.923-2.984 2.923H40.2v2.392c0 .158-.128.286-.287.286h-1.375c-.158 0-.286-.128-.286-.286v-7.95c0-.159.128-.288.286-.288h2.94c1.681 0 2.984 1.303 2.984 2.923M49.87 10.537c0-.914-.61-1.486-1.45-1.486-.839 0-1.448.572-1.448 1.486 0 .913.609 1.485 1.449 1.485.84 0 1.449-.572 1.449-1.485m1.827-2.894v5.787c0 .083-.068.151-.151.151H50.02c-.084 0-.151-.068-.151-.151v-.422c-.402.463-.999.743-1.814.743-1.595 0-2.911-1.4-2.911-3.214 0-1.815 1.316-3.215 2.91-3.215.816 0 1.413.28 1.815.742v-.42c0-.085.067-.152.15-.152h1.526c.083 0 .15.067.15.151M57.775 7.65l-1.402 3.532-1.45-3.534c-.039-.094-.13-.156-.232-.156h-1.555c-.107 0-.18.109-.14.209l2.419 5.895-.881 2.22c-.04.099.033.206.14.206h1.555c.103 0 .196-.062.234-.158L59.704 7.7c.04-.099-.034-.207-.14-.207h-1.555c-.103 0-.196.063-.234.159" transform="translate(0 1)"/>
    </g>
</svg>
