<svg xmlns="http://www.w3.org/2000/svg" xmlns:xlink="http://www.w3.org/1999/xlink" width="100" height="22" viewBox="0 0 100 22">
    <defs>
        <path id="prefix__a" d="M0.021 0.192L6.904 0.192 6.904 8.144 0.021 8.144z"/>
        <path id="prefix__c" d="M0 0.743L9.535 0.743 9.535 12.208 0 12.208z"/>
    </defs>
    <g fill="none" fill-rule="evenodd">
        <path fill="#270089" d="M87.057 7.087c-.488-.013-.96.183-1.295.535-.35.368-.536.862-.514 1.368-.015.514.175 1.01.529 1.38.337.356.808.55 1.296.54.494.013.97-.181 1.315-.535.356-.377.544-.882.52-1.399.01-.514-.191-1.009-.558-1.368-.35-.35-.829-.54-1.324-.52m2.383-1.816h1.528c.115 0 .207.092.207.205v7.02c.002.115-.09.212-.207.214H89.41c-.117-.002-.209-.099-.207-.214v-.57c-.334.32-.723.581-1.147.766-.392.155-.812.232-1.234.23-.97.002-1.897-.4-2.558-1.11-.727-.74-1.121-1.743-1.094-2.78-.041-1.044.337-2.06 1.049-2.825.655-.723 1.589-1.13 2.565-1.12.446-.006.89.078 1.303.249.427.178.817.438 1.147.764v-.615c-.002-.116.09-.212.206-.214M79.687 6.105h-2.022c-.11 0-.2-.089-.2-.199v-2.47c0-.109.09-.198.2-.198h2.022c.79.04 1.398.715 1.357 1.506-.037.734-.624 1.32-1.357 1.357m.137-4.832h-4.338c-.11 0-.2.089-.2.199l.027 10.965c0 .109.09.198.2.198h1.742c.11 0 .199-.09.199-.198v-4.36h2.4c1.878 0 3.4-1.522 3.4-3.398 0-1.877-1.522-3.4-3.4-3.4" transform="translate(0 3)"/>
        <g transform="translate(0 3) translate(92.308 5.06)">
            <mask id="prefix__b" fill="#fff">
                <use xlink:href="#prefix__a"/>
            </mask>
            <path fill="#270089" d="M6.708.192H5.056C4.971.2 4.898.257 4.87.338L3.41 3.695 1.943.338C1.914.261 1.84.212 1.758.212H.228C.113.214.02.309.02.425c.001.03.008.058.02.085l2.366 5.5-.478 1.125c-.042.098-.002.213.092.264l1.345.723c.103.051.227.01.278-.091.001-.005.004-.01.006-.013L6.888.505c.047-.112-.007-.243-.12-.289C6.743.207 6.72.202 6.697.2" mask="url(#prefix__b)"/>
        </g>
        <path fill="#FF4438" d="M95.296 13.874l-1.212-.65c-.093-.05-.209-.02-.268.068l-.065.1c-.384.554-.845 1.053-1.368 1.478-2.853 2.262-6.886 2.262-9.737 0-.528-.424-.993-.92-1.38-1.475L81.2 13.3c-.059-.089-.174-.119-.268-.07l-1.208.647c-.08.04-.123.13-.103.218.003.025.012.047.023.069.046.068.1.156.172.26.74 1.146 2.89 3.822 7.6 3.822h.202c4.715 0 6.852-2.676 7.59-3.852.064-.104.121-.196.163-.272.056-.089.029-.208-.061-.264l-.015-.007M68.845 2.832C66.593.546 62.915.518 60.627 2.77c-.022.02-.043.041-.063.062-.803.812-1.352 1.84-1.583 2.96h-3.44c-.074-.003-.136.056-.138.13v2.186c0 .077.06.14.137.142h3.102c-.165.427-.415.818-.735 1.147-1.273 1.288-3.349 1.301-4.64.029l-.028-.029c-1.288-1.311-1.288-3.412 0-4.722 1.246-1.28 3.29-1.322 4.588-.096l-.023-.027c.042.045.112.047.156.005.012-.01.021-.024.028-.04v.032c.27-.772.672-1.49 1.189-2.126l-.082.096c.06-.066.06-.165 0-.23-2.326-1.762-5.6-1.522-7.645.563-2.282 2.324-2.282 6.047 0 8.373 2.255 2.286 5.937 2.312 8.223.056l.058-.056c1.092-1.13 1.704-2.637 1.708-4.206.007-.882.352-1.729.964-2.363 1.267-1.29 3.339-1.306 4.628-.04l.04.04c1.287 1.31 1.287 3.41 0 4.718-1.251 1.272-3.291 1.31-4.588.083l.034.039c-.041-.044-.112-.045-.156-.002-.012.01-.02.025-.027.04V9.52c-.265.755-.653 1.462-1.146 2.091l.057-.068c-.049.06-.049.148 0 .209 2.323 1.77 5.598 1.535 7.646-.546 2.284-2.323 2.284-6.05 0-8.373" transform="translate(0 3)"/>
        <path fill="#270089" d="M26.96 1.372l-4.16.008c-.097 0-.175.078-.175.175v.005l.023 11.086c-.002.098.075.177.171.18h2.127c.096-.002.176-.082.176-.18V8.384h1.861c1.939 0 3.509-1.573 3.509-3.51 0-1.939-1.572-3.509-3.509-3.51m-.187 4.714H25.11V3.674h1.69c.664.037 1.172.605 1.135 1.27-.034.612-.522 1.1-1.134 1.134M46.121 7.531l3.516-5.795c.025-.04.038-.085.039-.13 0-.145-.115-.262-.26-.265H47.33c-.155.003-.3.083-.383.215l-2.057 3.59-2.071-3.598c-.085-.129-.229-.206-.383-.207h-2.087c-.145.003-.26.12-.26.264.001.046.014.09.038.13v.027l3.544 5.785v5.069c-.002.097.075.177.172.18h2.076c.097 0 .177-.079.177-.177v-.003l.026-5.085zM14.164 10.818h3.823l.608 1.84c.047.127.174.208.31.198h2.145c.08 0 .155-.039.202-.102.048-.067.06-.152.039-.23L17.323 1.591c-.025-.12-.132-.204-.253-.2h-2.008c-.118-.001-.222.082-.248.2l-3.938 10.944c-.02.08-.003.164.047.23.048.061.123.099.202.099h2.148c.136.01.263-.07.31-.198l.581-1.848zm1.911-5.845l1.148 3.537h-2.294l1.146-3.537zM36.319 1.353l-4.175.008c-.098.002-.176.081-.176.18l.023 11.086c0 .098.078.178.176.18h2.121c.098 0 .177-.079.177-.176V8.364h1.854c1.936-.09 3.432-1.733 3.342-3.669-.085-1.809-1.533-3.258-3.342-3.342m-.18 4.726h-1.686v-2.41h1.69c.665 0 1.204.54 1.204 1.205s-.54 1.205-1.204 1.205" transform="translate(0 3)"/>
        <g transform="translate(0 3) translate(0 .664)">
            <mask id="prefix__d" fill="#fff">
                <use xlink:href="#prefix__c"/>
            </mask>
            <path fill="#270089" d="M9.512.922c0-.098-.078-.178-.176-.18H7.154c-.098.002-.177.082-.177.18v4.526H2.535V.918c-.01-.092-.088-.161-.18-.16H.175C.08.758 0 .836 0 .933v.009l.023 11.085c-.002.097.076.178.172.18h2.183c.097 0 .176-.079.176-.176V7.758H7v4.273c.002.096.08.174.177.177h2.182c.098-.003.176-.083.176-.18L9.512.921z" mask="url(#prefix__d)"/>
        </g>
        <path fill="#270089" d="M36.319 1.353l-4.175.008c-.098.002-.176.081-.176.18l.023 11.086c0 .098.078.178.176.18h2.121c.098 0 .177-.079.177-.176V8.364h1.854c1.936-.09 3.432-1.733 3.342-3.669-.085-1.809-1.533-3.258-3.342-3.342m-.18 4.726h-1.686v-2.41h1.69c.665 0 1.204.54 1.204 1.205s-.54 1.205-1.204 1.205" transform="translate(0 3)"/>
    </g>
</svg>
