<svg width="85" height="36" xmlns="http://www.w3.org/2000/svg">
  <g fill="none" fill-rule="evenodd">
    <path
      d="M21.493 1H7.88C4.639 1 2 3.624 2 6.849v13.537c0 3.225 2.639 5.85 5.881 5.85h13.612c3.242 0 5.88-2.625 5.88-5.85V6.85c0-3.225-2.638-5.849-5.88-5.849"
      fill="#E60A0F" />
    <path
      d="M10.585 5.572c.273.317.232.574.068.957S9.874 8 8.827 8.95c-1.057.957-2.021 1.483-2.424 1.657-.403.174-.647.127-.92-.19l-.33-.383c-.272-.317-.302-.746-.067-.958 0 0 1.6-1.067 2.297-1.694C8.081 6.754 9.336 5 9.336 5c.236-.212.648-.127.92.19l.33.383zm.005 4.862l-.326-.39c-.27-.321-.68-.406-.916-.187 0 0-1.261 1.802-1.96 2.448-.7.647-2.3 1.748-2.3 1.748-.236.219-.208.657.062.98l.325.388c.27.323.513.37.915.189a7.68 7.68 0 001.05-.614v6.638c0 .397.283.719.632.719h.553c.35 0 .632-.322.632-.72v-8.2c.771-.844 1.254-1.689 1.394-2.02.165-.393.208-.657-.062-.979m14.094.996h-6.678c-.014 0-.026.006-.04.007-.014 0-.025-.007-.04-.007h-1.343a.444.444 0 01-.445-.444v-.93c0-.245.199-.444.445-.444h1.344a.736.736 0 00.738-.734v-.49a.736.736 0 00-.738-.734h-1.344a.444.444 0 01-.445-.443V5.619a.736.736 0 00-.736-.737h-.491a.737.737 0 00-.736.737v1.592a.444.444 0 01-.445.443h-1.405a.737.737 0 00-.74.734v.49c0 .405.332.734.74.734h1.405c.246 0 .445.199.445.444v.93a.444.444 0 01-.445.444h-1.405a.737.737 0 00-.74.733v.49c0 .405.332.734.74.734h1.405c.246 0 .445.199.445.444v.838a.444.444 0 01-.445.444h-1.405a.736.736 0 00-.74.734v.49c0 .405.332.733.74.733h1.405c.246 0 .445.199.445.444v1.632c0 .21-.148.391-.353.435-1.232.26-2.464.503-2.464.503a.775.775 0 00-.549.949l.13.508c.106.42.356.57.934.573.578.004 1.385-.09 3.229-.56 1.827-.467 2.968-1.249 3.407-1.547.44-.298.655-.528.548-.949l-.129-.507a.776.776 0 00-.934-.574s-.536.266-1.228.577a.445.445 0 01-.628-.404v-.636c0-.245.199-.444.445-.444h1.344a.736.736 0 00.738-.734v-.49a.736.736 0 00-.738-.733h-1.344a.445.445 0 01-.445-.444v-.838c0-.245.199-.444.445-.444h1.344c.014 0 .025-.007.039-.008.014.001.026.008.04.008h1.661c.251 0 .454.203.454.452v7.777c0 .407.306.737.682.737h.598c.377 0 .683-.33.683-.737V13.84c0-.25.203-.452.453-.452h2.147a.737.737 0 00.739-.734v-.49a.737.737 0 00-.74-.733"
      fill="#FFF" />
    <path
      d="M21.03 7.564c-.383 0-.694-.375-.694-.838 0-.463.31-.838.694-.838.384 0 .695.375.695.838 0 .463-.311.838-.695.838m.087-2.681c-.03-.002-.057.005-.087.005-.03 0-.057-.007-.087-.005-.91.06-1.505 1.09-1.353 2.229.15 1.119 1.245 3.447 1.245 3.447.038.1.117.148.195.147.078.001.157-.047.195-.147 0 0 1.096-2.328 1.245-3.447.153-1.14-.442-2.17-1.353-2.23"
      fill="#FFF" />
    <path
      d="M43.726 19.56c0 .226-.064.402-.19.523-.12.117-.292.176-.508.176l-9.85-.01c-.458-.002-.7-.244-.7-.702l.012-9.931c0-.218.06-.39.178-.51.12-.125.296-.19.521-.19l9.85.012c.438.001.7.263.699.701l-.012 9.931zm.134-12.723l-11.485-.013c-1.386-.002-2.059.69-2.06 2.055l-.014 11.4c-.002 1.386.67 2.059 2.056 2.06l11.485.014c1.365.001 2.058-.67 2.06-2.055l.014-11.401c.001-1.365-.691-2.059-2.056-2.06zM32.748 33.581c-.305.28-.766.419-1.383.419-.69 0-1.294-.314-1.823-.957-.149-.167-.217-.32-.217-.453 0-.112.034-.217.115-.307a.371.371 0 01.285-.134c.136 0 .251.063.36.175.284.328.467.53.562.607.237.203.488.301.745.301.36 0 .61-.084.76-.251.142-.168.216-.433.216-.81V29.58c0-.126.04-.23.122-.314a.431.431 0 01.312-.119c.122 0 .224.042.305.12a.432.432 0 01.122.313v2.619c0 .628-.163 1.09-.481 1.382m7.181.294a.448.448 0 01-.302.125.402.402 0 01-.349-.201l-1.531-2.27-.756.599v1.44a.46.46 0 01-.112.313.404.404 0 01-.289.119.433.433 0 01-.315-.119.425.425 0 01-.118-.313v-3.975a.42.42 0 01.111-.306.35.35 0 01.283-.126c.125 0 .23.042.315.112a.448.448 0 01.125.32v1.448l2.248-1.796a.404.404 0 01.25-.098c.111 0 .21.05.295.133.079.09.125.195.125.32 0 .139-.059.25-.164.334l-1.335 1.072 1.565 2.326a.475.475 0 01.085.244.404.404 0 01-.131.299m3.985-3.445c-.216-.335-.515-.502-.911-.502s-.702.167-.918.502c-.197.307-.293.691-.293 1.164 0 .468.096.844.3 1.137.215.32.521.48.911.48.396 0 .695-.16.905-.48.186-.286.282-.662.282-1.137 0-.473-.096-.864-.276-1.164m.552 2.887c-.336.453-.822.683-1.457.683-.623 0-1.11-.23-1.463-.69-.342-.44-.51-1.025-.51-1.757 0-.711.168-1.283.516-1.722.354-.454.834-.684 1.439-.684.594 0 1.073.23 1.433.69.342.447.516 1.018.516 1.716 0 .753-.162 1.339-.474 1.764m5.368-2.392a.572.572 0 00-.417-.166h-1.48c-.154 0-.231.086-.231.257v.894h1.711a.554.554 0 00.417-.172.601.601 0 000-.813m.577 1.277c-.257.24-.577.36-.955.36h-1.75v1.112c0 .217-.142.326-.41.326-.27 0-.404-.114-.404-.332v-2.984c0-.177.07-.32.217-.423a.862.862 0 01.507-.143h1.897c.372 0 .68.12.923.348.237.241.36.528.36.86 0 .343-.13.635-.385.876m2.821-1.843l-.844 1.824h1.694l-.85-1.824zm2.287 3.501a.554.554 0 01-.364.14c-.175 0-.297-.09-.378-.272l-.344-.759h-2.396l-.344.76c-.081.18-.216.271-.392.271a.509.509 0 01-.351-.14.427.427 0 01-.155-.34.48.48 0 01.054-.224l1.917-3.884c.081-.174.236-.265.466-.265.229 0 .384.09.472.265l1.91 3.884a.45.45 0 01-.095.564zm4.959-4.036l-1.503 2.328v1.409a.472.472 0 01-.106.32.331.331 0 01-.258.119.348.348 0 01-.27-.119.476.476 0 01-.105-.32v-1.409l-1.503-2.328a.43.43 0 01-.082-.259c0-.118.04-.216.129-.3a.418.418 0 01.287-.118c.106 0 .194.063.27.182l1.268 2.07 1.262-2.07c.07-.12.165-.182.27-.182.106 0 .2.042.288.119.082.083.13.181.13.3 0 .09-.03.174-.077.258m-3.922-13.068a1.224 1.224 0 01-.267-.151c-1.507-.946-2.746-2.025-3.737-3.234-.134-.152-.305-.34-.496-.55-.019 0-.038-.037-.057-.074l8.933.01c.19 0 .305.057.305.151-.077.416-.498.963-1.224 1.605a15.081 15.081 0 01-3.247 2.149c-.076.038-.134.057-.21.094m26.178-8.922c-.153-.134-.4-.209-.706-.21l-1.489-.001.003-2.512c-.018-.585-.361-.888-1.048-.89-.687.038-1.05.34-1.052.887L78.44 7.62l-6.108-.006c-.343 0-.573.074-.706.187-.191.151-.267.434-.268.85 0 .378.075.642.266.794.172.151.4.227.706.227l6.107.007-.01 9.236c0 .19-.096.284-.287.283-.327 0-3.971.228-8.207.139l.012-10.367a20.89 20.89 0 001.053-3.001c.058-.246.097-.51.135-.794 0-.378-.133-.642-.381-.775a2.012 2.012 0 00-.878-.19c-.305.057-.535.265-.669.604a29.254 29.254 0 01-3.271 7.269c-.154.226-.25.434-.25.623 0 .302.095.547.305.718.229.208.534.302.896.303.382 0 .668-.131.898-.433.02-.038.039-.076.077-.114l-.008 6.087c-3.342-.157-6.774-.552-9.064-1.432.134-.075.286-.15.439-.244 1.509-.943 2.693-1.962 3.553-3.038.612-.849.938-1.566.995-2.152 0-.566-.209-.963-.628-1.228-.248-.133-.706-.21-1.393-.247l-4.103-.005.002-2.512 6.719.007c.343 0 .61-.093.783-.301.115-.15.19-.358.191-.66 0-.378-.075-.624-.228-.738-.153-.151-.4-.227-.744-.227l-6.718-.008.002-1.624a.952.952 0 00-.324-.738c-.152-.132-.42-.208-.782-.208-.42 0-.688.075-.821.207-.21.226-.306.471-.306.736l-.002 1.625-6.413-.008c-.325 0-.573.075-.745.226-.152.17-.229.415-.23.736 0 .36.076.605.229.737.171.152.419.227.743.228l6.413.007-.002 2.512-5.821-.006c-.287 0-.497.075-.65.207-.172.169-.248.396-.249.68 0 .302.057.528.21.68.095.189.324.265.687.265l.858.001c-.172.17-.248.396-.249.68.019.302.267.699.763 1.21 1.181 1.285 2.306 2.288 3.374 3.044-1.642.603-3.666 1.224-6.09 1.863-.268.15-.383.453-.384.887 0 .19.096.397.286.586.191.19.458.303.763.304.573-.038 1.413-.207 2.501-.526a63.742 63.742 0 005.08-1.846c6.784 3.192 21.01 2.329 21.774 2.33.764-.075 1.317-.244 1.661-.49.382-.301.593-.679.593-1.132l.012-9.973 1.489.001c.381 0 .649-.093.82-.32.096-.113.154-.359.154-.699 0-.434-.094-.717-.266-.83"
      fill="#3E3A39" />
    <path
      d="M74.76 17.386c.093.076.24.113.463.114.315 0 .556-.075.741-.264.13-.113.205-.283.205-.547 0-.567-.203-1.248-.572-2.08-.665-1.362-1.202-2.232-1.59-2.648a1.702 1.702 0 00-.722-.285c-.185 0-.352.038-.5.094-.204.114-.353.245-.446.416a1.06 1.06 0 00-.074.378c0 .189.055.34.148.491.96 1.778 1.664 3.12 2.088 4.01.074.15.148.264.26.321"
      fill="#3E3A39" />
  </g>
</svg>