<svg width="20" height="20" viewBox="0 0 20 20" xmlns="http://www.w3.org/2000/svg">
    <g fill="none" fill-rule="evenodd">
        <path d="M16.7 1.214H3.492a2.282 2.282 0 0 0-2.279 2.28v13.205a2.281 2.281 0 0 0 2.28 2.279h13.205a2.28 2.28 0 0 0 2.278-2.279V3.494a2.281 2.281 0 0 0-2.278-2.28z" stroke="#F5281E" stroke-width="1.5" fill="#F5281E"/>
        <path d="M14.073 6.763c-.279.021-.538.156-.724.375l-4.021 4.625-2.212-2.001a1.034 1.034 0 0 0-1.515.072 1.176 1.176 0 0 0 .12 1.646l3.003 2.715a1.033 1.033 0 0 0 1.488-.091l4.718-5.431a1.176 1.176 0 0 0-.035-1.6 1.04 1.04 0 0 0-.822-.31" fill="#FFF"/>
    </g>
</svg>
