<svg width="18" height="18" xmlns="http://www.w3.org/2000/svg">
    <path d="M5.384 10.232v4.258c.001.815.48 1.257 1.366 1.258 2.337.003 4.744.003 7.25 0 .891 0 1.374-.441 1.374-1.25V5.981c0-.79-.496-1.25-1.35-1.25-2.313-.005-4.72-.005-7.281-.001-.86.001-1.357.457-1.358 1.244a1934.53 1934.53 0 0 0 0 4.258zm1.301-4.35 7.439.053-.057 8.673-7.382-.053V5.881zm4.928-3.632c.218 0 .327.157.327.47 0 .313-.109.48-.327.499H3.795v8.383c0 .29-.185.435-.557.435-.372 0-.576-.145-.613-.435V3.219c.042-.315.135-.554.28-.716.145-.162.442-.246.89-.253z" fill="#3C3C3C" fill-rule="nonzero"/>
</svg>
