<svg width="69" height="30" viewBox="0 0 69 30" xmlns="http://www.w3.org/2000/svg" xmlns:xlink="http://www.w3.org/1999/xlink">
    <defs>
        <path id="kz60gy8goa" d="M0 0h65.154v26.283H0z"/>
    </defs>
    <g fill="none" fill-rule="evenodd">
        <path fill="#F5C5C5" d="M0 0h69v30H0z"/>
        <g transform="translate(2.156 2.143)">
            <mask id="jima854atb" fill="#fff">
                <use xlink:href="#kz60gy8goa"/>
            </mask>
            <path d="M60.324 23.09h-.426c-1.279.212-1.847.85-1.989 1.558H7.056c-.142-.708-.71-1.346-1.989-1.558h-.426c-.71 0-1.42.283-1.847.637-.426.354-.639.85-.568 1.346 0 .283.142.495.355.637.213.141.426.212.71.212.426 0 .71-.354.71-.779 0-.283-.284-.495-.639-.495-.284 0-.426.212-.426.425 0 .07.071.07.071.07.071.071.071.071.142.071.142 0 .213-.07.213-.212 0-.071 0-.142-.07-.142 0 0 .07-.07.141-.07.142 0 .356.141.356.283 0 .283-.143.495-.427.495-.213 0-.355-.07-.568-.141-.142-.142-.213-.284-.284-.496-.07-.567.213-.92.497-1.133.497-.425 1.35-.708 2.06-.566 1.491.212 1.847 1.132 1.776 1.77-.071.495-.498.991-1.137.92-.426-.07-.568-.354-.639-.566 0-.142 0-.354.142-.496 0 0 .071.071.142.071.142 0 .213-.07.213-.212 0-.071-.07-.142-.142-.142-.07-.07-.07-.07-.142 0-.284.142-.497.496-.426.92.07.425.426.708.852.78.71.07 1.279-.426 1.42-1.134v-.212H57.98v.212c.142.708.71 1.204 1.42 1.133.427-.07.782-.354.853-.779.071-.354-.071-.708-.426-.92h-.142c-.071 0-.142.07-.142.142 0 .07.07.212.213.212.07 0 .07 0 .142-.07.142.14.142.353.142.495-.071.212-.213.566-.64.566-.638.071-1.065-.425-1.136-.92-.07-.638.284-1.558 1.776-1.77.71-.142 1.562.141 2.06.566.284.212.568.566.497 1.133 0 .212-.142.354-.284.496a.554.554 0 0 1-.568.141c-.285 0-.498-.283-.427-.495 0-.142.142-.284.356-.284.07 0 .07 0 .142.071-.071 0-.071.071-.071.142 0 .07.07.212.213.212.07 0 .142 0 .142-.07.07 0 .07-.071.07-.071 0-.213-.212-.425-.425-.425a.682.682 0 0 0-.64.495c0 .425.284.78.71.78.285 0 .498-.072.71-.213a.844.844 0 0 0 .356-.637c.07-.496-.142-.992-.568-1.346a3.33 3.33 0 0 0-1.989-.637M4.783 3.193h.426c1.278-.212 1.847-.92 1.918-1.558H58.05c.142.708.71 1.346 1.989 1.558h.426c.71 0 1.42-.212 1.847-.637.426-.354.639-.85.568-1.346a.743.743 0 0 0-.355-.637 1.202 1.202 0 0 0-.71-.212c-.427 0-.71.354-.71.779 0 .283.283.495.639.495.284 0 .426-.212.426-.425 0-.07-.071-.07-.071-.07-.071-.071-.071-.071-.142-.071-.142 0-.213.07-.213.212 0 .071 0 .142.07.142 0 0-.07.07-.141.07-.143 0-.356-.14-.356-.283 0-.283.142-.495.427-.495.213 0 .355.07.568.141.142.142.213.284.284.496.07.567-.213.92-.497 1.133-.498.425-1.35.708-2.06.566-1.492-.212-1.847-1.132-1.776-1.77.071-.495.498-.991 1.137-.92.426.07.568.354.639.566 0 .142 0 .354-.142.496 0 0-.071-.07-.142-.07-.142 0-.213.07-.213.211 0 .071.07.142.142.142.07.07.07.07.142 0 .284-.142.497-.496.426-.92-.071-.425-.426-.708-.852-.78-.71-.07-1.279.426-1.42 1.134v.212H7.197V1.14C7.056.432 6.488-.064 5.778.007c-.427.07-.782.354-.853.779-.071.424.07.778.355.92h.142c.071 0 .142-.07.142-.142 0-.07-.07-.212-.213-.212-.071 0-.071 0-.142.07-.071-.212-.071-.424-.071-.566.071-.212.213-.566.64-.566.638-.142 1.065.354 1.136.92.07.638-.284 1.558-1.776 1.77-.71.071-1.563-.141-2.06-.637-.284-.212-.568-.566-.497-1.133 0-.212.142-.354.284-.495a.554.554 0 0 1 .568-.142c.284 0 .498.283.427.496 0 .141-.143.283-.356.283-.07 0-.07 0-.142-.07.071 0 .071-.072.071-.142 0-.071-.07-.213-.213-.213-.07 0-.142 0-.142.071-.07 0-.07.07-.07.07 0 .213.212.426.425.426a.682.682 0 0 0 .64-.496c0-.425-.284-.779-.71-.779-.285 0-.498.071-.71.213-.214.283-.285.495-.356.778 0 .496.142.992.568 1.346.497.425 1.208.637 1.918.637m59.163 16.215h-.213V6.804h.213c.782-.141 1.279-.708 1.137-1.345-.071-.425-.355-.708-.853-.85-.355-.07-.78.071-.923.354v.142c0 .07.071.141.213.141.142 0 .213-.07.213-.212 0-.07 0-.07-.07-.142.141-.141.354-.141.496-.141.284.07.569.212.64.637.07.567-.427.991-.995 1.062-.71.071-1.562-.283-1.846-1.7-.142-.707.142-1.486.568-1.982.213-.212.639-.495 1.207-.495.213 0 .355.07.497.283.142.141.213.354.142.495.071.354-.142.496-.426.496-.213 0-.284-.142-.284-.354 0-.07 0-.07.071-.07.071.07.071.07.142.07.142 0 .213-.07.213-.212 0-.071 0-.142-.07-.142-.072 0-.072-.07-.143-.07-.213 0-.426.212-.426.424 0 .283.213.567.497.567.426 0 .782-.284.782-.638 0-.283-.071-.495-.214-.708-.142-.212-.426-.283-.71-.354-.497-.07-.994.142-1.42.567-.426.495-.71 1.133-.71 1.84v.425c.213 1.204.923 1.77 1.633 1.912V19.48c-.71.07-1.42.708-1.633 1.912v.424c0 .638.284 1.346.71 1.841.355.425.852.567 1.42.567.284 0 .497-.142.71-.354.143-.213.285-.425.214-.708 0-.425-.427-.708-.782-.638-.284 0-.568.284-.497.567 0 .212.213.425.426.425.071 0 .071 0 .071-.071.071 0 .071-.07.071-.142 0-.07-.07-.212-.213-.212-.07 0-.142 0-.142.07l-.07-.07c0-.142.141-.283.283-.354.284 0 .497.142.568.425 0 .212-.07.354-.142.495-.142.142-.284.213-.497.284-.568.07-.923-.213-1.207-.496-.497-.496-.71-1.345-.568-1.983.284-1.416 1.136-1.77 1.846-1.699.497.07 1.066.496.995 1.062-.071.354-.356.567-.64.637-.142 0-.355 0-.497-.141 0 0 .071-.071.071-.142 0-.07-.07-.212-.213-.212-.07 0-.142.07-.213.141-.07.071-.07.071 0 .142.142.283.568.425.923.354.427-.07.782-.425.853-.85 0-.637-.497-1.203-1.208-1.345M3.362 21.815v-.424c-.213-1.204-.923-1.77-1.633-1.912V6.875c.71-.07 1.42-.708 1.633-1.912v-.425c0-.637-.284-1.345-.71-1.84-.355-.425-.852-.567-1.42-.567-.284 0-.498.142-.71.354-.143.212-.285.425-.214.708 0 .425.426.708.782.637.284 0 .568-.283.497-.566.07-.213-.071-.425-.355-.425-.071 0-.071 0-.071.07-.071 0-.071.072-.071.142 0 .071.07.213.213.213.07 0 .142 0 .142-.07v.14c0 .142-.142.284-.284.355-.284 0-.498-.142-.569-.425 0-.213.071-.354.142-.496.143-.141.285-.212.498-.283.568-.07.923.212 1.207.496.497.424.781 1.274.64 1.982-.285 1.416-1.137 1.77-1.847 1.7C.734 6.52.166 6.167.308 5.53c0-.354.355-.567.569-.567.142 0 .355 0 .497.142 0 0-.071.07-.071.141 0 .071.07.213.213.213.07 0 .142-.07.213-.142.07-.07.07-.07 0-.141-.142-.354-.497-.567-.852-.496-.427.142-.782.425-.853.85-.07.637.426 1.203 1.137 1.345h.213v12.604H1.16c-.782.141-1.279.708-1.137 1.345.071.425.355.708.853.85.355.07.78-.071.923-.354v-.142c0-.07-.071-.141-.213-.141-.142 0-.213.07-.213.212 0 .07 0 .07.07.142-.141.141-.354.141-.496.141-.285-.07-.569-.212-.64-.637-.142-.637.426-1.062.924-1.133.71-.07 1.562.283 1.846 1.7.142.707-.142 1.486-.568 1.982-.213.212-.64.496-1.207.496-.213 0-.355-.071-.498-.284-.142-.141-.213-.354-.142-.495 0-.283.285-.425.569-.425.213 0 .284.142.284.354 0 .07 0 .07-.071.07-.071-.07-.071-.07-.142-.07-.142 0-.213.07-.213.212 0 .071 0 .142.07.142 0 .07.072.07.072.07.213 0 .426-.212.426-.424 0-.283-.213-.567-.497-.567-.427 0-.782.284-.782.638 0 .283.071.495.213.708.142.212.427.283.71.354.498.07.995-.142 1.421-.567.355-.495.64-1.203.64-1.84" fill="#E66262" mask="url(#jima854atb)"/>
        </g>
    </g>
</svg>
