<svg width="20" height="20" viewBox="0 0 20 20" xmlns="http://www.w3.org/2000/svg">
    <path d="M9.134 2.733a.783.783 0 0 1 .091 1.56l-.091.005H3.416a.85.85 0 0 0-.845.755l-.006.096v11.435a.85.85 0 0 0 .755.845l.096.006h11.435a.85.85 0 0 0 .846-.755l.005-.096v-5.718a.783.783 0 0 1 1.56-.091l.005.091v5.718a2.416 2.416 0 0 1-2.256 2.41l-.16.006H3.416a2.416 2.416 0 0 1-2.41-2.257L1 16.583V5.15a2.416 2.416 0 0 1 2.257-2.411l.16-.005h5.717zM16.484 1a2.515 2.515 0 0 1 1.78 4.294l-7.76 7.76c-.1.1-.226.17-.364.205l-3.267.817a.783.783 0 0 1-.949-.95l.817-3.266a.783.783 0 0 1 .206-.364l7.76-7.76A2.515 2.515 0 0 1 16.484 1zm0 1.565a.95.95 0 0 0-.671.278L8.206 10.45l-.447 1.792 1.791-.448 7.607-7.606a.95.95 0 0 0 .272-.565l.006-.107a.95.95 0 0 0-.95-.95z" fill="#3C3C3C" fill-rule="nonzero"/>
</svg>
