<svg xmlns="http://www.w3.org/2000/svg" xmlns:xlink="http://www.w3.org/1999/xlink" width="90" height="25"><defs><path id="a" d="M0 17.338h84.956V.328H0z"/></defs><g fill="none" fill-rule="evenodd"><path fill="#005093" d="M39.493 7.308h-3.947v-.72h3.945v-.875h-3.923v-.9H34.11v.9h-3.85v.874h3.85v.72h-3.85v.935h9.233z"/><g transform="translate(3 4.095)"><path fill="#005093" d="M27.79 10.752c-.746-.217-1.266-.676-1.564-1.236v-3.03c0-.818-.675-.733-.675-.733h-2.248v.967h1.55v2.82s-1.506 1.113-1.934 1.333l.723.837 1.723-1.256c.16.21.35.397.575.564.49.383 1.153.66 1.993.826.821.147 1.894.216 3.221.216h5.296l.497-1.166c-1.947.091-3.462.14-5.793.14-1.52 0-2.642-.096-3.363-.282"/><path fill="#005093" d="M28.397 5.46h6.99v.924h-6.99v-.925zm-.76 4.343c1.814-.226 3.448-1.286 3.448-1.286v2.192l1.468-.004v-3.48h3.94V5.587a.975.975 0 0 0-.773-.952h-8.46v2.588h3.837c-.314.195-2.225 1.348-4.017 1.572l.558 1.007z"/><mask id="b" fill="#fff"><use xlink:href="#a"/></mask><path fill="#005093" d="M33.31 8.711h3.183V7.87H33.31zm0 1.467h3.183v-.845H33.31zm33.439.342h-9.64V8.378h8.227V7.78c0-.327-.323-.327-.323-.327H57.11V5.354h9.64v5.167zM55.086 2.566h7.015c-.369.792-1.095 1.408-1.695 1.81h-4.734v7.613h1.437v-.482h9.64v.482h1.435V5.587c0-1.27-1.1-1.213-1.1-1.213h-4.969c.765-.61 1.294-1.448 1.5-1.809h5.122v-1.03h-13.65v1.03zm28.938.111c-.141.42-.321.642-.543.733-.214.088-.78.103-1.206.103h-2.551c-.41 0-.67-.085-.802-.254-.064-.08-.157-.464-.19-.597 1.667-.192 3.349-.34 5.023-.77.172-.034.682-.23.682-.23L83.98.836c-1.082.432-3.52.72-5.246.91V.818L77.36.648v2.068c0 .575.146 1.013.433 1.305.34.33.82.493 1.433.493h3.923c.427 0 .79-.08 1.086-.238.33-.18.489-.545.722-1.156l-.932-.442z" mask="url(#b)"/><path fill="#005093" d="M73.175 9.057h8.573V8.46c0-.325-.321-.325-.321-.325h-8.252v-.68h8.573v-.596c0-.325-.321-.325-.321-.325h-8.252v-.698h9.68v3.857h-9.68v-.636zm10.08-4.146H74.92V2.05a20.235 20.235 0 0 0 1.126-.759l-.812-.962c-1.834 1.484-4.64 2.34-4.64 2.34l.615 1.105c.726-.162 1.52-.504 2.255-.885V4.91H71.84v5.727h1.393a4.295 4.295 0 0 1-1.393 1.14l.503.89s1.341-.337 2.36-2.03h6.737c1.018 1.693 2.36 2.03 2.36 2.03l.393-.949c-.59-.303-1.019-.75-1.28-1.08h1.28V5.962c0-.93-.938-1.052-.938-1.052zM25.59 3.214l-2.287.966v.964l2.901-1.155c-.052-.775-.613-.775-.613-.775m-.001-2.129l-2.287.965v.965l2.901-1.157c-.052-.773-.613-.773-.613-.773m21.212 6.37h3.909v-.92h-3.909v.92zm0-2.826h3.909v.985h-3.909v-.985zm-5.323.985h3.82v-.985h-3.82v.985zm0 1.841h3.82v-.92h-3.82v.92zM46.764.626h-1.463v1.177h-5.98v1.016h5.98v.844h-5.258v4.761h4.718l.232-.009-.009.01c-.946.561-1.944 1.038-2.887 1.458-.983.437-1.589.621-2.756.897l.561 1.01c1.23-.34 2.421-.813 3.145-1.155.787-.354 1.51-.712 2.254-1.254v2.804h1.502V9.381a11.98 11.98 0 0 0 2.243 1.28c.724.345 1.92.867 3.288 1.167l.45-1.053c-1.362-.291-1.978-.482-2.86-.877a28.582 28.582 0 0 1-2.803-1.474h5.008v-3.62c0-.657-.34-1.09-.949-1.141h-4.377v-.844h5.98V1.803h-6.019V.626z" mask="url(#b)"/><path fill="#C5242B" d="M23.471 16.107c-.003.46-.003 1.068-.003 1.068h-.33v-1.616c0-.49.425-.779.824-.779h.91v.306h-.866c-.37 0-.538.293-.538.462v.253h1.374v.3l-1.37.006zm7.749-.01c0 .498.23.772.598.772h.87v.306h-.91c-.4 0-.9-.203-.9-1.197 0-1.022.501-1.198.9-1.198h.91v.306h-.869c-.369 0-.605.29-.605.715h1.443v.3l-1.437-.004zm8.717 0c0 .498.23.772.6.772h.868v.306h-.912c-.398 0-.9-.203-.9-1.197 0-1.022.502-1.198.9-1.198h.912v.306h-.868c-.369 0-.606.29-.606.715h1.443v.3l-1.437-.004zm-10.9.463c.151.31.115.615.115.615h.313c-.008-.346-.031-.5-.121-.73-.09-.223-.305-.42-.305-.42.171-.078.338-.235.338-.55 0-.69-.692-.694-.692-.694h-1.189l.011 2.394h.33s0-.608.004-1.068l.793-.005c.03.03.226.094.403.458m-.35-.759h-.85v-.715h.848s.358.01.358.353c0 .342-.357.362-.357.362m14.56.759c.15.31.114.615.114.615h.315c-.01-.346-.033-.5-.124-.73-.09-.223-.302-.42-.302-.42.17-.078.338-.235.338-.55 0-.69-.695-.694-.695-.694h-1.188l.013 2.394h.328s0-.608.004-1.068l.794-.005c.03.03.223.094.403.458m-.35-.759h-.85v-.715h.846s.36.01.36.353c0 .342-.357.362-.357.362m-6.098.009h-.73s-.357-.028-.357-.371c0-.344.36-.353.36-.353h1.218l.008-.306H36.07s-.694.027-.694.715c0 .43.4.626.57.632h.732s.362.027.362.372c0 .344-.359.354-.359.354h-1.22l-.006.305h1.226s.693-.027.693-.715c0-.436-.413-.632-.577-.632m-10.278.428l-.423-1.075-.426 1.075h.849zm-.971.321l-.241.615h-.369l.933-2.395h.443l.938 2.395h-.364l-.255-.615h-1.085zm8.986-.321l-.421-1.075-.426 1.075h.847zm-.97.321l-.241.615h-.369l.932-2.395h.444l.938 2.395h-.365l-.254-.615h-1.085zm5.926-1.78h-2.034v.306h.866v2.09h.304v-2.09h.864zm6.082 2.395h.306l-.002-2.395h-.304v1.88l-1.326-1.88h-.302l-.002 2.395h.305V15.29zm1.928-.022h.94c.776 0 1.003-.68 1.003-1.209 0-.677-.375-1.143-.988-1.143H47.5v2.352zm.318-2.08h.593c.433 0 .706.298.706.891 0 .594-.27.918-.682.918h-.617v-1.81zm4.707 1.088h.74c.512 0 .696-.371.696-.698 0-.38-.261-.663-.696-.663h-1.058v2.353h.318v-.992zm0-1.089h.646c.26 0 .464.096.464.394 0 .318-.192.423-.478.423h-.632v-.817zm2.825 1.397l.233.684h.347l-.851-2.353h-.362l-.885 2.353h.329l.245-.684h.945zm-.844-.283l.376-1.034h.005l.35 1.034h-.731zm3.92-1.386h1.912v.283h-.798v2.07h-.317v-2.07h-.797zm4.142 2.353v-1.388c0-.07.007-.366.007-.586h-.007l-.66 1.974h-.316l-.662-1.972h-.007c0 .218.007.514.007.584v1.388h-.309v-2.352h.456l.672 1.99h.007l.669-1.99h.452v2.352h-.309zm4.539-2.353h.308v2.353h-.358l-1.196-1.9h-.007v1.9h-.307V14.8h.376l1.177 1.902h.007zm.743 0h1.91v.283h-.796v2.07h-.318v-2.07h-.796zm5.516 0h1.912v.283h-.798v2.07h-.318v-2.07h-.796zm4.248 1.178c0-.509-.27-1.24-1.147-1.24-.88 0-1.147.731-1.147 1.24 0 .508.268 1.238 1.147 1.238.878 0 1.147-.73 1.147-1.238m-.328 0c0 .552-.308.957-.82.957-.51 0-.818-.405-.818-.957 0-.554.308-.959.819-.959.51 0 .82.405.82.959m-27.017.119c0 .49.226.76.588.76h.855v.3h-.896c-.393 0-.886-.198-.886-1.178 0-1.006.495-1.178.888-1.178h.894v.3h-.853c-.364 0-.599.285-.599.703h1.423v.295l-1.415-.002zm13.402 0c0 .49.224.76.589.76h.853v.3h-.896c-.393 0-.886-.198-.886-1.178 0-1.006.495-1.178.887-1.178h.896v.3h-.854c-.363 0-.598.285-.598.703h1.422v.295l-1.413-.002zm16.961 0c0 .49.226.76.589.76h.854v.3h-.896c-.393 0-.886-.198-.886-1.178 0-1.006.494-1.178.886-1.178h.897v.3h-.853c-.365 0-.599.285-.599.703h1.421v.295l-1.413-.002zm-22.853.456c.15.305.114.604.114.604h.308c-.008-.339-.03-.492-.12-.716a1.375 1.375 0 0 0-.299-.416c.167-.075.333-.23.333-.542 0-.678-.682-.683-.682-.683h-1.17l.01 2.357h.324s0-.597.004-1.05l.782-.004c.03.028.221.09.397.45m-.344-.749h-.839V15.1h.836s.354.01.354.348c0 .339-.351.356-.351.356m22.122.749c.15.305.113.604.113.604h.309c-.01-.339-.032-.492-.121-.716a1.359 1.359 0 0 0-.3-.416c.17-.075.334-.23.334-.542 0-.678-.683-.683-.683-.683h-1.17l.01 2.357h.326s0-.597.002-1.05l.783-.004c.03.028.222.09.397.45m-.346-.749h-.836V15.1h.834s.354.01.354.348c0 .339-.352.356-.352.356m-6.772.01h.002-.718s-.353-.027-.353-.366c0-.339.354-.348.354-.348h1.2l.007-.3h-1.207s-.683.026-.683.703c0 .425.395.618.562.622v.002h.72s.357.027.357.364c0 .34-.355.35-.355.35h-1.198l-.009.3h1.207s.684-.026.684-.703c0-.43-.407-.624-.57-.624m11.449 0h-.719s-.351-.027-.351-.366c0-.339.353-.348.353-.348h1.2l.007-.3h-1.207s-.682.026-.682.703c0 .425.395.618.56.622l-.001.002h.723s.355.027.355.364c0 .34-.353.35-.353.35h-1.2l-.007.3h1.207s.683-.026.683-.703c0-.43-.407-.624-.568-.624" mask="url(#b)"/><path fill="#005093" d="M7.545 10.798c-.408-.137-.998-.518-1.541-.877-.762-.502-.977-.65-1.443-.872C2.843 8.232 0 10.801 0 10.801v-1.53s2.653-1.802 4.403-.978c.2.095.745.394.927.5.844.493 2.011 1.332 2.892.829l11.549-7.796v1.78L9.377 10.45c-.631.425-1.213.537-1.832.348" mask="url(#b)"/><path fill="#C5242B" d="M7.165 12.158c-.836-.475-1.41-.872-1.69-1.022-.977-.52-2.085.495-3.332 1.334C1.3 13.037.01 13.962.01 13.962v-1.695s2.061-1.36 3.298-2.06c.89-.503 1.444-.406 2.378.173.23.141.738.483.898.563.47.238 1.953 1.442 3.221.662l9.945-6.468.018 1.625-8.448 5.644c-1.357.85-2.42.737-4.155-.248" mask="url(#b)"/><path fill="#005093" d="M7.528 13.161c-.325-.133-1.004-.513-1.33-.728-.67-.443-1.022-.845-1.527-.633-.736.31-1.86 1.163-1.86 1.163 1.562 2.657 4.142 4.375 7.298 4.375 4.752 0 8.544-3.845 8.527-8.527 0-.084-.027-.178-.037-.344 0 0-5.606 3.853-7.124 4.719-1.295.74-2.494.573-3.947-.025" mask="url(#b)"/><path fill="#C5242B" d="M5.035 7.844c.65.342 1.006.556 1.672.949.365.214.758.422 1.125.183.297-.192 5.224-3.575 8.524-5.74-1.493-1.647-3.515-2.723-6.16-2.74-4.394-.026-7.69 3.37-8.34 7.08.145-.037.415-.15.67-.179 1.486-.17 2.51.447 2.51.447" mask="url(#b)"/><path fill="#FFFFFE" d="M7.545 10.798c-.408-.137-.998-.518-1.541-.877-.762-.502-.977-.65-1.443-.872-1.33-.632-3.328.76-4.165 1.423v1.543c.655-.425 2.005-1.293 2.913-1.808.89-.503 1.444-.406 2.377.173.23.141.74.483.9.563.469.238 1.952 1.442 3.22.662l9.605-6.247V3.843L9.377 10.45c-.631.425-1.213.537-1.832.348" mask="url(#b)"/></g></g></svg>