<?xml version="1.0" encoding="utf-8"?>
<!-- Generator: Adobe Illustrator 28.3.0, SVG Export Plug-In . SVG Version: 6.00 Build 0)  -->
<svg version="1.1" id="圖層_1" xmlns="http://www.w3.org/2000/svg" xmlns:xlink="http://www.w3.org/1999/xlink" x="0px" y="0px"
	 width="477.2px" height="48.1px" viewBox="0 0 477.2 48.1" style="enable-background:new 0 0 477.2 48.1;" xml:space="preserve">
<style type="text/css">
	.製作陰影{fill:none;}
	.圓角_x0020_2_x0020_點{fill:#FFFFFF;stroke:#231815;stroke-miterlimit:10;}
	.即時反射_x0020_X{fill:none;}
	.柔化斜角{fill:url(#SVGID_1_);}
	.黃昏{fill:#FFFFFF;}
	.葉子_GS{fill:#FFE100;}
	.高捲式髮型_GS{fill-rule:evenodd;clip-rule:evenodd;fill:#4CACE2;}
	.st0{fill:#E72410;}
	.st1{fill:url(#SVGID_00000086692802227891285780000016364832141386325386_);}
	.st2{fill:url(#SVGID_00000094582177378479488700000016403770969292922011_);}
	.st3{fill:#333333;}
</style>
<linearGradient id="SVGID_1_" gradientUnits="userSpaceOnUse" x1="-61.838" y1="-276.1689" x2="-61.1309" y2="-275.4618">
	<stop  offset="0" style="stop-color:#E6E7EA"/>
	<stop  offset="0.1747" style="stop-color:#E2E3E6"/>
	<stop  offset="0.3538" style="stop-color:#D6D7DA"/>
	<stop  offset="0.5349" style="stop-color:#C1C4C5"/>
	<stop  offset="0.7174" style="stop-color:#A4A8A8"/>
	<stop  offset="0.8993" style="stop-color:#808584"/>
	<stop  offset="1" style="stop-color:#686E6C"/>
</linearGradient>
<g>
	<g>
		<path d="M99.1,28.8c0.4,0,0.7-0.3,0.7-0.7v-2.9c0-0.4-0.3-0.7-0.7-0.7H83.8c-1.3,0-2.4,1-2.4,2.2v0.1v0.1v20.5
			c0,0.4,0.3,0.7,0.7,0.7h4.1c0.4,0,0.7-0.3,0.7-0.7v-9.1h12.1c0.4,0,0.7-0.3,0.7-0.7v-2.9c0-0.4-0.3-0.7-0.7-0.7h-8.9
			c-0.4,0-0.8,0.1-1.2,0.6l-2,2.7v-8.6H99.1z"/>
		<path d="M123.1,28.8c0.4,0,0.7-0.3,0.7-0.7v-2.9c0-0.4-0.3-0.7-0.7-0.7h-15.3c-1.4,0-2.3,1.2-2.3,2v19.8c0,0.9,0.8,1.7,1.8,1.7
			h15.8c0.4,0,0.7-0.3,0.7-0.7v-2.9c0-0.4-0.3-0.7-0.7-0.7H122h-5.2h-5.4h-0.4v-5.5h12.1c0.4,0,0.7-0.3,0.7-0.7v-2.9
			c0-0.4-0.3-0.7-0.7-0.7h-8.9c-0.9,0-1.2,0.6-1.5,1l-1.7,2.4v-8.6H123.1z"/>
		<path d="M149.3,24.5H142h-5h-7.7c-0.4,0-0.7,0.3-0.7,0.7v2.9c0,0.4,0.3,0.7,0.7,0.7l11.5,0c-0.5,0-1.3,0.2-1.6,0.6
			c0,0-1.7,1.9-2.5,2.9c-0.3,0.4-0.3,1.1-0.3,1.1v13.9c0,0.4,0.3,0.7,0.7,0.7h4.1c0.4,0,0.7-0.3,0.7-0.7V28.8h7.2
			c0.4,0,0.7-0.3,0.7-0.7v-2.9C150,24.9,149.7,24.5,149.3,24.5z"/>
		<g>
			<g>
				<g>
					<path d="M0,34c0,0,0,10.3,0,11c2.2,0,4-1.2,4-3.7c0-1.1,0-4.5,0-5.4c0-1.7-0.6-2-1.6-2C1.9,34,0,34,0,34L0,34z"/>
					<polygon points="0,27.1 0,27.1 0,27 					"/>
					<g>
						<path d="M35,32v-1.2H9.7v-1.8h10.9v-1.3H9.7v-1.8h10.9v-1.3H0v1.3h7v1.8H0l0,1.3h7v1.8H0v1.4c0,0,2.7,0,3.8,0
							c2,0,3.2,1,3.2,3.2c0,1,0,5.8,0,6.2c0,1.8,2.1,3.5,3.7,3.5c0.9,0,5,0,5,0l0-4.1l-6,2.1v-2l9.1-3.1v7.2H35v-1h-5.8l-9-3l9-3H35
							v-1H9.7c0,0,0-2.9,0-3.3c0-1.1,1.1-1.8,2.8-1.8C13.1,32,35,32,35,32z"/>
					</g>
					<path d="M10.8,47c-1.8,0-3.1,0-5.3-1.7C3.5,47.1,2.1,47,0,47v1.1h35V47C35,47,12.3,47,10.8,47z"/>
					<polyline points="35.8,27.6 23.6,27.6 23.6,28.9 35,28.9 					"/>
					<rect x="23.6" y="24.5" width="11.3" height="1.3"/>
					<path d="M12.8,35.3h22.2v-1.5c0,0-20.7,0-21.1,0c-0.4,0-1,0.1-1,0.5C12.8,34.4,12.8,35.3,12.8,35.3z"/>
					<polygon class="st0" points="35,44.1 35,38.1 26.2,41.1 					"/>
				</g>
				<g>
					<polygon points="34.9,30.7 40.4,28.4 40.4,48.1 43.5,48.1 43.5,24.5 34.9,28 					"/>
					<rect x="45.8" y="44.2" width="15.4" height="1.8"/>
				</g>
			</g>
			<g>
				<path d="M74,27v-1.8H61.3v-1h-3.1v1H45.7V27h12.5v1.3H45.7l0,8.1h12.5v1.4H45.7l0,1.8c0,0,25.3,0,25.5,0c2.1,0,2.8-0.7,2.8-1.6
					c0-0.6,0-0.9,0-0.9h-3.1c0,0,0,0.3,0,0.4c0,0.2-0.1,0.3-0.3,0.3c-0.4,0-9.3,0-9.3,0v-1.3H74c0,0,0-5,0-6c0-1.1-0.9-2.1-3.1-2.1
					c-1.8,0-9.6,0-9.6,0V27H74z M58.2,34.6h-9.4v-1.3h9.4V34.6z M58.2,31.4h-9.4l0-1.3h9.3V31.4z M70.9,34.6h-9.6v-1.3h9.6V34.6z
					 M69.9,30.1c0.8,0,1,0.4,1,0.9c0,0.3,0,0.5,0,0.5h-9.6v-1.3C61.3,30.1,68.9,30.1,69.9,30.1z"/>
				<path d="M45.7,42.7h25.2v2.5c0,0.3-0.2,0.5-0.6,0.6c-0.1,0-0.2,0-0.2,0h-9v1.8c0,0,8.5,0,9.9,0c1.5,0,2.9-0.9,2.9-2.5
					c0-1.2,0-4.3,0-4.3H45.7V42.7z"/>
			</g>
		</g>
		<g>
			<g>
				<g>
					
						<linearGradient id="SVGID_00000047027235952167980680000003297203189160840110_" gradientUnits="userSpaceOnUse" x1="145.2732" y1="6.7967" x2="2.8036" y2="24.2166">
						<stop  offset="0" style="stop-color:#A11F24"/>
						<stop  offset="9.097014e-02" style="stop-color:#AA2122"/>
						<stop  offset="0.2381" style="stop-color:#C2261C"/>
						<stop  offset="0.3435" style="stop-color:#D72A17"/>
						<stop  offset="1" style="stop-color:#D72A17"/>
					</linearGradient>
					<polygon style="fill:url(#SVGID_00000047027235952167980680000003297203189160840110_);" points="0,12.7 0,18.1 150,18.1 
						142.4,12.7 					"/>
				</g>
			</g>
			
				<linearGradient id="SVGID_00000061456416398801237330000005713793051373589663_" gradientUnits="userSpaceOnUse" x1="98.3931" y1="-22.5103" x2="146.3823" y2="11.9802">
				<stop  offset="0" style="stop-color:#A11F24"/>
				<stop  offset="9.106586e-03" style="stop-color:#A31F24"/>
				<stop  offset="0.1691" style="stop-color:#BF251D"/>
				<stop  offset="0.3084" style="stop-color:#D12918"/>
				<stop  offset="0.4106" style="stop-color:#D72A17"/>
				<stop  offset="0.6924" style="stop-color:#D72A17"/>
				<stop  offset="1" style="stop-color:#D93A1A"/>
			</linearGradient>
			<polygon style="fill:url(#SVGID_00000061456416398801237330000005713793051373589663_);" points="134.6,0 134.6,7 150,18.1 
				150,11.1 			"/>
		</g>
	</g>
	<g>
		<path class="st3" d="M199.8,42.4c-1.4-1.2-3.7-2.9-6.2-4.2c-0.1,0.8,0,2,0.1,2.7c-5.7,1.6-7.1,2.1-7.8,2.5
			c1.4,0.1,2.9,0.2,4.6,0.2c3.6,0,9.2-0.2,13.1-0.6c-0.6,0.8-1.1,2.6-1.3,3.7c-3.5,0.2-7.9,0.3-11.8,0.3c-6.3,0-10.3-0.7-12.9-4.2
			c-1.1,2.1-2.3,3.7-3.8,4.9c-0.5-0.8-1.9-2.1-2.6-2.7c2.6-2,4.4-5.4,5.3-9.9h-2c-0.7,0-1.7,0.2-2,0.5c-0.2-0.8-0.9-2.5-1.3-3.2
			c0.5-0.1,1.1-0.4,1.6-1.1c0.5-0.6,1.7-2.5,2.8-4.3h-3.8v-3.2h6l0.3-0.1l2.5,1c-1.1,1.9-3,5.1-4.5,7.4h1.9l0.6-0.1l1.7,0.7
			c-0.3,2.5-0.8,4.8-1.5,6.8c1.4,2.6,3.6,3.6,6.8,4c-0.2-0.8-0.6-1.9-1-2.5c0.5-0.2,1.2-0.6,1.2-1.8v-0.6c-1.3,0.6-2.7,1.2-4,1.6
			c-0.4-0.7-1.5-2.2-2.1-2.9c2.9-0.7,5.8-1.8,7.9-3.3h-4.5v-7.5h16.7v6.9l2.4,1.6c-1.3,0.9-2.6,1.7-3.8,2.4c1.6,0.9,3,1.9,3.9,2.7
			L199.8,42.4z M176.8,23.1c-0.9-1.5-2.7-3.8-4.1-5.5l3-1.8c1.5,1.6,3.3,3.7,4.2,5.1L176.8,23.1z M180.7,24.9v-2.9h8.7v-1.5h-6.9
			v-2.9h6.9v-1.9h3.9v1.9h7.2v2.9h-7.2v1.5h9.1v2.9H180.7z M186.8,31.1h9.1V29h-9.1V31.1z M192.4,33.8c-0.9,1-2,1.9-3.3,2.7v2.7
			l4.5-1.1c-0.9-0.5-1.8-1-2.7-1.4l2.3-2.2c0.8,0.4,1.6,0.8,2.5,1.2c0.8-0.5,1.7-1.2,2.4-1.9H192.4z"/>
		<path class="st3" d="M233.2,37.3h4.3v3.1h-4.3v3.5c0,1.8-0.3,2.7-1.7,3.2c-1.3,0.5-3.1,0.5-5.5,0.5c-0.2-1-0.6-2.4-1.1-3.4
			c1.6,0.1,3.3,0.1,3.8,0.1c0.5,0,0.7-0.2,0.7-0.5v-3.4h-7.6c1.3,1.2,2.7,2.7,3.4,3.7l-3.2,2c-0.8-1.3-2.5-3.3-4-4.7l1.7-1.1H215
			v-3.1h14.4v-1.5c-4.9,0.1-9.7,0.2-13.3,0.3l-0.3-3c2.4,0,5.5,0,8.9-0.1v-1.4H217v-9.3h7.5V21h-8.9v-1.6c-0.7,1.6-1.5,3.2-2.3,4.7
			v23.4h-3.8V30.1c-0.7,1-1.5,1.9-2.3,2.7c-0.4-1-1.5-3.2-2.1-4.2c3.1-3.1,6-7.9,7.7-12.7l3.8,1.2l-0.4,1h8.3V16h3.9v2.1h8.7V21
			h-8.7v1.3h7.8v9.3h-1.5c1.3,1.2,2.5,2.5,3.2,3.5l-2.9,1.6c-0.2-0.3-0.5-0.7-0.8-1.1l-1,0V37.3z M220.8,25.9h3.8v-1.4h-3.8V25.9z
			 M224.6,29.4V28h-3.8v1.4H224.6z M228.5,24.5v1.4h3.9v-1.4H228.5z M232.3,28h-3.9v1.4h3.9V28z M228.5,33l3.3,0
			c-0.4-0.4-0.8-0.8-1.2-1.1l0.3-0.1h-2.3V33z"/>
		<path class="st3" d="M271.6,37.2h-13.4v5.5c0,2.4-0.6,3.5-2.2,4.1c-1.6,0.6-4.1,0.7-7.5,0.7c-0.2-1.2-1-2.9-1.7-4
			c2.5,0.1,5.4,0.1,6.1,0.1c0.8,0,1.1-0.3,1.1-1v-5.5h-13.4v-3.9h13.4v-4h-11.1v-3.9h11.1v-4c-3.5,0.3-7.1,0.5-10.4,0.6
			c-0.1-1.1-0.6-2.7-1-3.6c8.2-0.3,17.5-1.3,23.1-2.7l2.9,3.4c-3,0.8-6.6,1.4-10.3,1.8v4.5h11.4v3.9h-11.4v4h13.4V37.2z"/>
		<path class="st3" d="M282.7,35c-0.3-0.8-0.8-2.1-1.4-3.3v15.8h-3.5V34.5c-0.7,2.3-1.5,4.5-2.3,6c-0.3-1.1-1.1-3-1.6-4
			c1.6-2.4,3-6.8,3.7-10.6h-2.8v-3.7h3v-6.3h3.5v6.3h2.3v3.7h-2.3v1.5c0.7,1,2.7,4.2,3.2,5L282.7,35z M304.2,37.4
			c-1,1.9-2.2,3.5-3.7,5c0.6,0.7,1.3,1.1,2.1,1.2c0.6,0.1,1.1-1.2,1.3-3.5c0.6,0.8,1.9,1.8,2.5,2.1c-0.9,4.2-2.2,5.4-3.7,5.3
			c-2-0.2-3.7-1.2-5-2.9c-1.6,1.1-3.4,2.1-5.4,2.8c-0.4-0.7-1.4-1.9-2.1-2.6c2.2-0.7,4.1-1.8,5.8-3.1c-0.7-1.6-1.3-3.4-1.7-5.4h-4.6
			c0,0.2,0,0.5-0.1,0.7c1.4,1.1,3.3,2.7,4.3,3.6l-2.4,2.4c-0.6-0.7-1.6-1.6-2.5-2.5c-0.7,2.4-2.1,4.9-4.6,6.8
			c-0.5-0.6-1.9-1.9-2.7-2.3c3.6-2.7,4.5-6.1,4.6-8.8h-2v-3.1h9.5c-0.6-3.5-0.9-7.5-1.2-11.9c-1.3,2.5-3,5.1-4.6,7.1l1.9-0.2
			c-0.1-0.5-0.3-1.1-0.4-1.5l2.3-0.6c0.6,1.6,1.1,3.6,1.3,4.9l-2.5,0.7c0-0.3-0.1-0.7-0.2-1.2c-4.1,0.6-4.9,0.8-5.3,1.1
			c-0.1-0.5-0.6-2-0.9-2.8c0.5-0.1,1.1-0.7,1.7-1.5c0.3-0.4,0.9-1.3,1.6-2.4c-1.8,0.2-2.4,0.4-2.7,0.6c-0.2-0.6-0.6-2-1-2.7
			c0.4-0.1,0.8-0.5,1.2-1.2c0.4-0.6,1.6-3.1,2.2-5.4l2.9,0.8c-0.8,1.9-1.9,4-2.9,5.6l1.5-0.1c0.3-0.7,0.7-1.4,1-2.1l2.8,0.9
			c-0.1-1.6-0.1-3.4-0.2-5.2h3.3c0.1,6.7,0.6,12.6,1.4,17.2h3.1c-0.6-0.5-1.2-1-1.8-1.5l1.5-1.3c-1.6,0.3-2.1,0.4-2.4,0.6
			c-0.1-0.6-0.6-2-0.9-2.8c0.5-0.2,1.1-0.7,1.7-1.6c0.3-0.3,0.9-1.3,1.6-2.4c-1.8,0.2-2.3,0.4-2.7,0.6c-0.2-0.6-0.6-1.9-1-2.7
			c0.4-0.1,0.8-0.5,1.2-1.2c0.3-0.6,1.5-2.9,2-5.1l2.9,0.8c-0.7,1.8-1.7,3.7-2.7,5.2l1.5-0.1c0.3-0.7,0.6-1.4,0.9-2.1l2.9,1
			c-1.3,2.5-2.9,5.2-4.6,7.2l1.9-0.2c-0.2-0.5-0.3-1-0.5-1.4l2.3-0.6c0.6,1.6,1.3,3.7,1.6,4.9l-2.4,0.8c-0.1-0.4-0.2-0.8-0.3-1.4
			c-0.8,0.1-1.6,0.2-2.1,0.3c0.9,0.7,2,1.5,2.6,2.1l-0.9,0.8h2.7v3.1h-3.9L304.2,37.4z M297.9,36.4c0.3,1.1,0.6,2.1,0.9,3
			c0.8-0.9,1.5-1.9,2-3H297.9z"/>
		<path class="st3" d="M309.4,43.5H340v3.2h-30.6V43.5z M320.7,32.9c-0.1-0.5-0.3-1-0.6-1.5c-7.3,1.4-8.5,1.7-9.2,2
			c-0.1-0.7-0.7-1.9-1.2-2.4c0.6-0.3,1.5-0.9,1.5-2.3V16.8h12.3v9.9h-2.4c1,1.6,2,3.7,2.5,5.1L320.7,32.9z M324.7,25.8
			c0.4-1.7,0.7-4.2,1-6.3h-0.9v-2.7h14.6v2.7H334c-0.1,1.3-0.1,2.4-0.3,3.5h5.8v2.9h-6.3c-0.1,0.2-0.1,0.4-0.2,0.6h1.7v2.7
			c0,0.7,0.1,0.7,0.6,0.7h1.5c0.5,0,0.7-0.3,0.7-2.4c0.6,0.4,1.8,0.8,2.6,1.1c-0.3,3.1-1.1,3.9-2.9,3.9h-2.4c-2.5,0-3.2-0.8-3.2-3.2
			c-1.3,1.8-3.2,3.1-6.1,4.1h10.3v9.1H314v-9.1h11.2c-0.4-0.8-1.2-2-1.8-2.6c3.7-1,5.6-2.5,6.5-4.9H324.7z M314.7,19.2v1.4h5.6v-1.4
			H314.7z M314.7,24.2h5.6v-1.5h-5.6V24.2z M319,28.8c-0.2-0.5-0.5-0.9-0.7-1.4l2.3-0.8h-5.8v2.9L319,28.8z M331.9,35.3h-14.1v1.6
			h14.1V35.3z M331.9,38.7h-14.1v1.6h14.1V38.7z M330.5,22.9c0.1-1.1,0.2-2.2,0.3-3.5h-2c-0.2,1.1-0.3,2.3-0.5,3.5H330.5z"/>
		<path class="st3" d="M343.6,17.1h16.2v3.4h-4.2v3.3h4V47h-3.3v-1.7h-9.2v2.2H344V23.8h3.8v-3.3h-4.3L343.6,17.1z M356.3,42.1v-7.7
			h-0.1h-1.4c-1.8,0-2.2-0.6-2.2-2.9v-4.5H351v2.5c0,2-0.4,4.5-2.2,6.1c-0.3-0.4-1.2-1.1-1.7-1.4v7.9H356.3z M347.1,27.1v7
			c1.5-1.4,1.7-3.1,1.7-4.5v-2.5H347.1z M348.1,36.9h7.2v3.1h-7.2V36.9z M352.4,20.5h-1.4v3.3h1.4V20.5z M356.3,27.1h-1.5v4.4
			c0,0.5,0.1,0.6,0.3,0.6h0.7c0.3,0,0.4,0,0.4-0.1V27.1z M369.8,43.4c1.2,0,1.4-0.8,1.6-5.3c0.8,0.6,2.5,1.3,3.6,1.6
			c-0.4,5.7-1.4,7.5-4.8,7.5h-4.5c-3.7,0-4.8-1.2-4.8-5.3V28.1h8.9v-6.9h-9v-3.8h13v14.6h-8.8v9.9c0,1.4,0.2,1.6,1.4,1.6H369.8z"/>
		<path class="st3" d="M388.5,17.2c-0.9,2.4-2,4.9-3.3,7.2v23.1h-3.8V30.4c-0.7,0.9-1.4,1.7-2,2.4c-0.4-1-1.5-3.2-2.2-4.2
			c3-3.1,5.9-7.9,7.5-12.7L388.5,17.2z M409.1,36.1h-8.7v11.4h-4.1V36.1h-9.2v-3.9h9.2v-5.8h-4.1c-0.6,1.7-1.4,3.2-2.1,4.4
			c-0.7-0.5-2.5-1.5-3.5-1.9c1.8-2.7,3.2-7,4-11.1l3.9,0.8c-0.3,1.3-0.6,2.6-1,3.9h2.8v-6.2h4.1v6.2h7.1v3.9h-7.1v5.8h8.7V36.1z"/>
		<path class="st3" d="M430.8,29.1c2.2,6.6,6.4,12,12.7,14.6c-1,0.8-2.3,2.7-3,3.8c-6.2-2.9-10.1-7.9-12.7-14.4
			c-1.8,5.7-5.5,11-12.7,14.4c-0.6-1.1-1.8-2.6-3-3.4c7.8-3.5,11-9.1,12.3-15h-11.7v-4.2h12.4c0.3-3.2,0.3-6.3,0.3-9.1h4.4
			c0,2.8-0.1,5.9-0.4,9.1h13.4v4.2H430.8z"/>
		<path class="st3" d="M468.4,42.6c3.2,0.9,6.7,2,8.8,2.8l-4.2,2.1c-2-0.9-5.6-2.2-9.1-3.2l2.6-1.8h-9.7l3.5,1.3
			c-2.6,1.8-6.9,3.1-10.4,3.8c-0.7-0.9-2.1-2.3-3-3c3.4-0.4,7.1-1.2,9.2-2.1h-4.9V30.4h22.2v12.2H468.4z M451.5,25.8h-3.7v-6.5h4.7
			c-0.5-0.8-1.1-1.7-1.6-2.4l3.6-1c0.9,1,1.8,2.3,2.3,3.3l-0.4,0.1h3.7v-3.5h4v3.5h3.7c0.7-1,1.7-2.4,2.1-3.5l4.1,1
			c-0.7,1-1.4,1.8-2,2.5h4.7v6.5h-3.9v-3.7h-21.2V25.8z M453.2,29.3v-5.9h18.1v5.9H453.2z M455,33.8h14.3v-1.2H455V33.8z M455,37.1
			h14.3v-1.2H455V37.1z M455,40.4h14.3v-1.2H455V40.4z M456.9,27h10.3v-1.4h-10.3V27z"/>
	</g>
	<g>
		<path class="st3" d="M199.8,42.4c-1.4-1.2-3.7-2.9-6.2-4.2c-0.1,0.8,0,2,0.1,2.7c-5.7,1.6-7.1,2.1-7.8,2.5
			c1.4,0.1,2.9,0.2,4.6,0.2c3.6,0,9.2-0.2,13.1-0.6c-0.6,0.8-1.1,2.6-1.3,3.7c-3.5,0.2-7.9,0.3-11.8,0.3c-6.3,0-10.3-0.7-12.9-4.2
			c-1.1,2.1-2.3,3.7-3.8,4.9c-0.5-0.8-1.9-2.1-2.6-2.7c2.6-2,4.4-5.4,5.3-9.9h-2c-0.7,0-1.7,0.2-2,0.5c-0.2-0.8-0.9-2.5-1.3-3.2
			c0.5-0.1,1.1-0.4,1.6-1.1c0.5-0.6,1.7-2.5,2.8-4.3h-3.8v-3.2h6l0.3-0.1l2.5,1c-1.1,1.9-3,5.1-4.5,7.4h1.9l0.6-0.1l1.7,0.7
			c-0.3,2.5-0.8,4.8-1.5,6.8c1.4,2.6,3.6,3.6,6.8,4c-0.2-0.8-0.6-1.9-1-2.5c0.5-0.2,1.2-0.6,1.2-1.8v-0.6c-1.3,0.6-2.7,1.2-4,1.6
			c-0.4-0.7-1.5-2.2-2.1-2.9c2.9-0.7,5.8-1.8,7.9-3.3h-4.5v-7.5h16.7v6.9l2.4,1.6c-1.3,0.9-2.6,1.7-3.8,2.4c1.6,0.9,3,1.9,3.9,2.7
			L199.8,42.4z M176.8,23.1c-0.9-1.5-2.7-3.8-4.1-5.5l3-1.8c1.5,1.6,3.3,3.7,4.2,5.1L176.8,23.1z M180.7,24.9v-2.9h8.7v-1.5h-6.9
			v-2.9h6.9v-1.9h3.9v1.9h7.2v2.9h-7.2v1.5h9.1v2.9H180.7z M186.8,31.1h9.1V29h-9.1V31.1z M192.4,33.8c-0.9,1-2,1.9-3.3,2.7v2.7
			l4.5-1.1c-0.9-0.5-1.8-1-2.7-1.4l2.3-2.2c0.8,0.4,1.6,0.8,2.5,1.2c0.8-0.5,1.7-1.2,2.4-1.9H192.4z"/>
		<path class="st3" d="M233.2,37.3h4.3v3.1h-4.3v3.5c0,1.8-0.3,2.7-1.7,3.2c-1.3,0.5-3.1,0.5-5.5,0.5c-0.2-1-0.6-2.4-1.1-3.4
			c1.6,0.1,3.3,0.1,3.8,0.1c0.5,0,0.7-0.2,0.7-0.5v-3.4h-7.6c1.3,1.2,2.7,2.7,3.4,3.7l-3.2,2c-0.8-1.3-2.5-3.3-4-4.7l1.7-1.1H215
			v-3.1h14.4v-1.5c-4.9,0.1-9.7,0.2-13.3,0.3l-0.3-3c2.4,0,5.5,0,8.9-0.1v-1.4H217v-9.3h7.5V21h-8.9v-1.6c-0.7,1.6-1.5,3.2-2.3,4.7
			v23.4h-3.8V30.1c-0.7,1-1.5,1.9-2.3,2.7c-0.4-1-1.5-3.2-2.1-4.2c3.1-3.1,6-7.9,7.7-12.7l3.8,1.2l-0.4,1h8.3V16h3.9v2.1h8.7V21
			h-8.7v1.3h7.8v9.3h-1.5c1.3,1.2,2.5,2.5,3.2,3.5l-2.9,1.6c-0.2-0.3-0.5-0.7-0.8-1.1l-1,0V37.3z M220.8,25.9h3.8v-1.4h-3.8V25.9z
			 M224.6,29.4V28h-3.8v1.4H224.6z M228.5,24.5v1.4h3.9v-1.4H228.5z M232.3,28h-3.9v1.4h3.9V28z M228.5,33l3.3,0
			c-0.4-0.4-0.8-0.8-1.2-1.1l0.3-0.1h-2.3V33z"/>
		<path class="st3" d="M271.6,37.2h-13.4v5.5c0,2.4-0.6,3.5-2.2,4.1c-1.6,0.6-4.1,0.7-7.5,0.7c-0.2-1.2-1-2.9-1.7-4
			c2.5,0.1,5.4,0.1,6.1,0.1c0.8,0,1.1-0.3,1.1-1v-5.5h-13.4v-3.9h13.4v-4h-11.1v-3.9h11.1v-4c-3.5,0.3-7.1,0.5-10.4,0.6
			c-0.1-1.1-0.6-2.7-1-3.6c8.2-0.3,17.5-1.3,23.1-2.7l2.9,3.4c-3,0.8-6.6,1.4-10.3,1.8v4.5h11.4v3.9h-11.4v4h13.4V37.2z"/>
		<path class="st3" d="M282.7,35c-0.3-0.8-0.8-2.1-1.4-3.3v15.8h-3.5V34.5c-0.7,2.3-1.5,4.5-2.3,6c-0.3-1.1-1.1-3-1.6-4
			c1.6-2.4,3-6.8,3.7-10.6h-2.8v-3.7h3v-6.3h3.5v6.3h2.3v3.7h-2.3v1.5c0.7,1,2.7,4.2,3.2,5L282.7,35z M304.2,37.4
			c-1,1.9-2.2,3.5-3.7,5c0.6,0.7,1.3,1.1,2.1,1.2c0.6,0.1,1.1-1.2,1.3-3.5c0.6,0.8,1.9,1.8,2.5,2.1c-0.9,4.2-2.2,5.4-3.7,5.3
			c-2-0.2-3.7-1.2-5-2.9c-1.6,1.1-3.4,2.1-5.4,2.8c-0.4-0.7-1.4-1.9-2.1-2.6c2.2-0.7,4.1-1.8,5.8-3.1c-0.7-1.6-1.3-3.4-1.7-5.4h-4.6
			c0,0.2,0,0.5-0.1,0.7c1.4,1.1,3.3,2.7,4.3,3.6l-2.4,2.4c-0.6-0.7-1.6-1.6-2.5-2.5c-0.7,2.4-2.1,4.9-4.6,6.8
			c-0.5-0.6-1.9-1.9-2.7-2.3c3.6-2.7,4.5-6.1,4.6-8.8h-2v-3.1h9.5c-0.6-3.5-0.9-7.5-1.2-11.9c-1.3,2.5-3,5.1-4.6,7.1l1.9-0.2
			c-0.1-0.5-0.3-1.1-0.4-1.5l2.3-0.6c0.6,1.6,1.1,3.6,1.3,4.9l-2.5,0.7c0-0.3-0.1-0.7-0.2-1.2c-4.1,0.6-4.9,0.8-5.3,1.1
			c-0.1-0.5-0.6-2-0.9-2.8c0.5-0.1,1.1-0.7,1.7-1.5c0.3-0.4,0.9-1.3,1.6-2.4c-1.8,0.2-2.4,0.4-2.7,0.6c-0.2-0.6-0.6-2-1-2.7
			c0.4-0.1,0.8-0.5,1.2-1.2c0.4-0.6,1.6-3.1,2.2-5.4l2.9,0.8c-0.8,1.9-1.9,4-2.9,5.6l1.5-0.1c0.3-0.7,0.7-1.4,1-2.1l2.8,0.9
			c-0.1-1.6-0.1-3.4-0.2-5.2h3.3c0.1,6.7,0.6,12.6,1.4,17.2h3.1c-0.6-0.5-1.2-1-1.8-1.5l1.5-1.3c-1.6,0.3-2.1,0.4-2.4,0.6
			c-0.1-0.6-0.6-2-0.9-2.8c0.5-0.2,1.1-0.7,1.7-1.6c0.3-0.3,0.9-1.3,1.6-2.4c-1.8,0.2-2.3,0.4-2.7,0.6c-0.2-0.6-0.6-1.9-1-2.7
			c0.4-0.1,0.8-0.5,1.2-1.2c0.3-0.6,1.5-2.9,2-5.1l2.9,0.8c-0.7,1.8-1.7,3.7-2.7,5.2l1.5-0.1c0.3-0.7,0.6-1.4,0.9-2.1l2.9,1
			c-1.3,2.5-2.9,5.2-4.6,7.2l1.9-0.2c-0.2-0.5-0.3-1-0.5-1.4l2.3-0.6c0.6,1.6,1.3,3.7,1.6,4.9l-2.4,0.8c-0.1-0.4-0.2-0.8-0.3-1.4
			c-0.8,0.1-1.6,0.2-2.1,0.3c0.9,0.7,2,1.5,2.6,2.1l-0.9,0.8h2.7v3.1h-3.9L304.2,37.4z M297.9,36.4c0.3,1.1,0.6,2.1,0.9,3
			c0.8-0.9,1.5-1.9,2-3H297.9z"/>
		<path class="st3" d="M309.4,43.5H340v3.2h-30.6V43.5z M320.7,32.9c-0.1-0.5-0.3-1-0.6-1.5c-7.3,1.4-8.5,1.7-9.2,2
			c-0.1-0.7-0.7-1.9-1.2-2.4c0.6-0.3,1.5-0.9,1.5-2.3V16.8h12.3v9.9h-2.4c1,1.6,2,3.7,2.5,5.1L320.7,32.9z M324.7,25.8
			c0.4-1.7,0.7-4.2,1-6.3h-0.9v-2.7h14.6v2.7H334c-0.1,1.3-0.1,2.4-0.3,3.5h5.8v2.9h-6.3c-0.1,0.2-0.1,0.4-0.2,0.6h1.7v2.7
			c0,0.7,0.1,0.7,0.6,0.7h1.5c0.5,0,0.7-0.3,0.7-2.4c0.6,0.4,1.8,0.8,2.6,1.1c-0.3,3.1-1.1,3.9-2.9,3.9h-2.4c-2.5,0-3.2-0.8-3.2-3.2
			c-1.3,1.8-3.2,3.1-6.1,4.1h10.3v9.1H314v-9.1h11.2c-0.4-0.8-1.2-2-1.8-2.6c3.7-1,5.6-2.5,6.5-4.9H324.7z M314.7,19.2v1.4h5.6v-1.4
			H314.7z M314.7,24.2h5.6v-1.5h-5.6V24.2z M319,28.8c-0.2-0.5-0.5-0.9-0.7-1.4l2.3-0.8h-5.8v2.9L319,28.8z M331.9,35.3h-14.1v1.6
			h14.1V35.3z M331.9,38.7h-14.1v1.6h14.1V38.7z M330.5,22.9c0.1-1.1,0.2-2.2,0.3-3.5h-2c-0.2,1.1-0.3,2.3-0.5,3.5H330.5z"/>
		<path class="st3" d="M343.6,17.1h16.2v3.4h-4.2v3.3h4V47h-3.3v-1.7h-9.2v2.2H344V23.8h3.8v-3.3h-4.3L343.6,17.1z M356.3,42.1v-7.7
			h-0.1h-1.4c-1.8,0-2.2-0.6-2.2-2.9v-4.5H351v2.5c0,2-0.4,4.5-2.2,6.1c-0.3-0.4-1.2-1.1-1.7-1.4v7.9H356.3z M347.1,27.1v7
			c1.5-1.4,1.7-3.1,1.7-4.5v-2.5H347.1z M348.1,36.9h7.2v3.1h-7.2V36.9z M352.4,20.5h-1.4v3.3h1.4V20.5z M356.3,27.1h-1.5v4.4
			c0,0.5,0.1,0.6,0.3,0.6h0.7c0.3,0,0.4,0,0.4-0.1V27.1z M369.8,43.4c1.2,0,1.4-0.8,1.6-5.3c0.8,0.6,2.5,1.3,3.6,1.6
			c-0.4,5.7-1.4,7.5-4.8,7.5h-4.5c-3.7,0-4.8-1.2-4.8-5.3V28.1h8.9v-6.9h-9v-3.8h13v14.6h-8.8v9.9c0,1.4,0.2,1.6,1.4,1.6H369.8z"/>
		<path class="st3" d="M388.5,17.2c-0.9,2.4-2,4.9-3.3,7.2v23.1h-3.8V30.4c-0.7,0.9-1.4,1.7-2,2.4c-0.4-1-1.5-3.2-2.2-4.2
			c3-3.1,5.9-7.9,7.5-12.7L388.5,17.2z M409.1,36.1h-8.7v11.4h-4.1V36.1h-9.2v-3.9h9.2v-5.8h-4.1c-0.6,1.7-1.4,3.2-2.1,4.4
			c-0.7-0.5-2.5-1.5-3.5-1.9c1.8-2.7,3.2-7,4-11.1l3.9,0.8c-0.3,1.3-0.6,2.6-1,3.9h2.8v-6.2h4.1v6.2h7.1v3.9h-7.1v5.8h8.7V36.1z"/>
		<path class="st3" d="M430.8,29.1c2.2,6.6,6.4,12,12.7,14.6c-1,0.8-2.3,2.7-3,3.8c-6.2-2.9-10.1-7.9-12.7-14.4
			c-1.8,5.7-5.5,11-12.7,14.4c-0.6-1.1-1.8-2.6-3-3.4c7.8-3.5,11-9.1,12.3-15h-11.7v-4.2h12.4c0.3-3.2,0.3-6.3,0.3-9.1h4.4
			c0,2.8-0.1,5.9-0.4,9.1h13.4v4.2H430.8z"/>
		<path class="st3" d="M468.4,42.6c3.2,0.9,6.7,2,8.8,2.8l-4.2,2.1c-2-0.9-5.6-2.2-9.1-3.2l2.6-1.8h-9.7l3.5,1.3
			c-2.6,1.8-6.9,3.1-10.4,3.8c-0.7-0.9-2.1-2.3-3-3c3.4-0.4,7.1-1.2,9.2-2.1h-4.9V30.4h22.2v12.2H468.4z M451.5,25.8h-3.7v-6.5h4.7
			c-0.5-0.8-1.1-1.7-1.6-2.4l3.6-1c0.9,1,1.8,2.3,2.3,3.3l-0.4,0.1h3.7v-3.5h4v3.5h3.7c0.7-1,1.7-2.4,2.1-3.5l4.1,1
			c-0.7,1-1.4,1.8-2,2.5h4.7v6.5h-3.9v-3.7h-21.2V25.8z M453.2,29.3v-5.9h18.1v5.9H453.2z M455,33.8h14.3v-1.2H455V33.8z M455,37.1
			h14.3v-1.2H455V37.1z M455,40.4h14.3v-1.2H455V40.4z M456.9,27h10.3v-1.4h-10.3V27z"/>
	</g>
</g>
</svg>
