<?xml version="1.0" encoding="utf-8"?>
<!-- Generator: Adobe Illustrator 28.7.1, SVG Export Plug-In . SVG Version: 9.03 Build 54978)  -->
<svg version="1.1" id="圖層_1" xmlns="http://www.w3.org/2000/svg" xmlns:xlink="http://www.w3.org/1999/xlink" x="0px" y="0px"
	 width="160px" height="45px" viewBox="0 0 160 45" style="enable-background:new 0 0 160 45;" xml:space="preserve">
<style type="text/css">
	.st0{fill:#FFDDBB;}
	.st1{fill:#FF7755;}
</style>
<rect class="st0" width="160" height="45"/>
<g>
	<g>
		<path class="st1" d="M9.3,34c0-0.3,0-0.5-0.1-0.8C8.8,31,7.5,30,6.1,29.8V15.4c1.4-0.2,2.7-1.3,3.1-3.5c0-0.3,0.1-0.5,0.1-0.8
			c0-1.2-0.5-2.5-1.3-3.4C7.2,7,6.3,6.7,5.4,6.8c-0.5,0-1,0.3-1.3,0.6C3.8,7.7,3.6,8.2,3.6,8.7C3.7,9.4,4.4,10,5.2,9.9
			c0.6,0,1-0.5,1-1.1C6.1,8.3,5.7,8,5.3,8C5.2,8,5.1,8.1,5.1,8.1C5,8.2,5,8.3,5,8.4c0,0.2,0.2,0.4,0.4,0.4c0.1,0,0.2-0.1,0.3-0.1
			c0,0.1,0.1,0.1,0.1,0.2c0,0.3-0.2,0.6-0.6,0.6c-0.5,0-1-0.3-1-0.8c0-0.3,0.1-0.7,0.3-1c0.2-0.3,0.6-0.4,1-0.5
			c1.1-0.1,1.8,0.4,2.2,0.9C8.5,9,9,10.6,8.7,11.9c-0.5,2.6-2.2,3.3-3.4,3.1c-1-0.1-2-0.9-1.8-2c0.1-0.7,0.7-1.1,1.2-1.1
			c0.3-0.1,0.7,0,1,0.2c-0.1,0.1-0.1,0.1-0.1,0.2c0,0.2,0.2,0.4,0.4,0.4c0.2,0,0.3-0.1,0.4-0.3c0-0.1,0.1-0.2,0-0.2
			c-0.3-0.6-1-0.8-1.7-0.7c-0.8,0.2-1.4,0.8-1.6,1.5c-0.2,1.2,0.8,2.3,2.2,2.5c0.1,0,0.3,0,0.4,0v14.3c-0.1,0-0.3,0-0.4,0
			C3.8,30,2.8,31,3,32.2c0.1,0.8,0.7,1.4,1.6,1.5c0.7,0.1,1.4-0.1,1.7-0.7c0-0.1,0-0.2,0-0.2c0-0.2-0.2-0.3-0.4-0.3
			c-0.2,0-0.4,0.2-0.4,0.4c0,0.1,0,0.2,0.1,0.2c-0.3,0.2-0.7,0.3-1,0.2c-0.5-0.1-1.1-0.4-1.2-1.1c-0.2-1.1,0.8-1.8,1.8-2
			c1.3-0.2,3,0.5,3.4,3.1c0.2,1.3-0.2,2.8-1.1,3.8c-0.4,0.5-1.2,1-2.2,0.9c-0.4,0-0.7-0.2-1-0.5c-0.2-0.3-0.4-0.6-0.3-1
			c0-0.5,0.5-0.8,1-0.8c0.3,0,0.6,0.3,0.6,0.6c0,0.1,0,0.1-0.1,0.2c-0.1-0.1-0.2-0.1-0.3-0.1c-0.2,0-0.4,0.2-0.4,0.4
			C5,36.9,5,37,5.1,37.1c0,0.1,0.1,0.1,0.2,0.1c0.5,0,0.8-0.3,0.9-0.8c0-0.6-0.4-1.1-1-1.1c-0.8-0.1-1.5,0.5-1.5,1.2
			c0,0.5,0.1,0.9,0.4,1.3c0.3,0.4,0.8,0.6,1.3,0.6c1,0.1,1.9-0.3,2.6-1C8.8,36.5,9.3,35.3,9.3,34z M154.8,29.6c-0.1,0-0.3,0-0.4,0
			V15.3c0.1,0,0.3,0,0.4,0c1.4-0.2,2.4-1.3,2.2-2.5c-0.1-0.8-0.7-1.4-1.6-1.5c-0.7-0.1-1.4,0.1-1.7,0.7c0,0.1,0,0.2,0,0.2
			c0,0.2,0.2,0.3,0.4,0.3c0.2,0,0.4-0.2,0.4-0.4c0-0.1,0-0.2-0.1-0.2c0.3-0.2,0.7-0.3,1-0.2c0.5,0.1,1.1,0.4,1.2,1.1
			c0.2,1.1-0.8,1.8-1.8,2c-1.3,0.2-3-0.5-3.4-3.1c-0.2-1.3,0.2-2.8,1.1-3.8c0.4-0.4,1.2-1,2.2-0.9c0.4,0,0.7,0.2,1,0.5
			c0.2,0.3,0.4,0.6,0.3,1c0,0.5-0.5,0.8-1,0.8c-0.3,0-0.6-0.3-0.6-0.6c0-0.1,0-0.1,0.1-0.2c0.1,0.1,0.2,0.1,0.3,0.1
			c0.2,0,0.4-0.2,0.4-0.4c0-0.1-0.1-0.2-0.1-0.3c0-0.1-0.1-0.1-0.2-0.1c-0.5,0-0.8,0.3-0.9,0.8c0,0.6,0.4,1.1,1,1.1
			c0.8,0.1,1.5-0.5,1.5-1.2c0-0.5-0.1-0.9-0.4-1.3c-0.3-0.4-0.8-0.6-1.3-0.6c-1-0.1-1.9,0.3-2.6,1c-0.8,0.9-1.3,2.1-1.3,3.4
			c0,0.3,0,0.5,0.1,0.8c0.4,2.2,1.7,3.3,3.1,3.5v14.3c-1.4,0.2-2.7,1.3-3.1,3.5c0,0.3-0.1,0.5-0.1,0.8c0,1.2,0.5,2.5,1.3,3.4
			c0.7,0.8,1.6,1.1,2.6,1c0.5,0,1-0.3,1.3-0.6c0.3-0.4,0.5-0.8,0.4-1.3c-0.1-0.7-0.8-1.3-1.5-1.2c-0.6,0-1,0.5-1,1.1
			c0,0.5,0.4,0.8,0.9,0.8c0.1,0,0.2-0.1,0.2-0.1c0.1-0.1,0.1-0.2,0.1-0.3c0-0.2-0.2-0.4-0.4-0.4c-0.1,0-0.2,0.1-0.3,0.1
			c0-0.1-0.1-0.1-0.1-0.2c0-0.3,0.2-0.6,0.6-0.6c0.5,0,1,0.3,1,0.8c0,0.3-0.1,0.7-0.3,1c-0.2,0.3-0.6,0.4-1,0.5
			c-1.1,0.1-1.8-0.4-2.2-0.9c-0.9-0.9-1.4-2.5-1.1-3.8c0.5-2.6,2.2-3.3,3.4-3.1c1,0.1,2,0.9,1.8,2c-0.1,0.7-0.7,1.1-1.2,1.1
			c-0.3,0.1-0.7,0-1-0.2c0.1-0.1,0.1-0.1,0.1-0.2c0-0.2-0.2-0.4-0.4-0.4c-0.2,0-0.3,0.1-0.4,0.3c0,0.1-0.1,0.2,0,0.2
			c0.3,0.6,1,0.8,1.7,0.7c0.8-0.2,1.4-0.8,1.6-1.5C157.2,30.8,156.2,29.8,154.8,29.6z M11.9,8.6c0.3,0,0.5,0,0.8-0.1
			c2.4-0.4,3.5-1.6,3.7-2.9h127.4c0.2,1.3,1.3,2.5,3.7,2.9c0.3,0,0.5,0.1,0.8,0.1c1.3,0,2.6-0.5,3.5-1.2c0.8-0.7,1.2-1.5,1.1-2.5
			c0-0.5-0.3-0.9-0.7-1.2c-0.4-0.3-0.9-0.5-1.4-0.4c-0.8,0.1-1.3,0.7-1.3,1.5c0.1,0.6,0.6,1,1.2,0.9c0.5,0,0.8-0.4,0.8-0.8
			c0-0.1-0.1-0.1-0.1-0.2c-0.1-0.1-0.2-0.1-0.3-0.1c-0.2,0-0.4,0.2-0.4,0.4c0,0.1,0.1,0.2,0.1,0.3c-0.1,0-0.1,0.1-0.2,0.1
			c-0.3,0-0.6-0.2-0.6-0.5c0-0.5,0.3-0.9,0.8-1c0.4,0,0.7,0.1,1,0.3c0.3,0.2,0.5,0.6,0.5,0.9c0.1,1-0.5,1.7-0.9,2.1
			c-1,0.9-2.6,1.3-3.9,1.1c-2.8-0.4-3.5-2-3.3-3.3c0.2-0.9,0.9-1.9,2.1-1.7c0.7,0.1,1.1,0.7,1.2,1.1c0.1,0.3,0,0.7-0.2,0.9
			c-0.1-0.1-0.2-0.1-0.2-0.1c-0.2,0-0.4,0.2-0.4,0.4c0,0.2,0.1,0.3,0.3,0.3c0.1,0,0.2,0.1,0.2,0c0.6-0.3,0.9-1,0.7-1.7
			c-0.2-0.8-0.8-1.4-1.6-1.5c-1.3-0.2-2.4,0.7-2.6,2.1c0,0.1,0,0.3,0,0.4H16.4c0-0.1,0-0.3,0-0.4c-0.2-1.4-1.3-2.3-2.6-2.1
			c-0.8,0.1-1.4,0.7-1.6,1.5c-0.1,0.7,0.1,1.3,0.7,1.7c0.1,0,0.2,0,0.2,0c0.2,0,0.3-0.2,0.3-0.3c0-0.2-0.2-0.4-0.4-0.4
			c-0.1,0-0.2,0-0.2,0.1c-0.2-0.3-0.3-0.6-0.2-0.9c0.1-0.5,0.5-1,1.2-1.1C15,3,15.8,3.9,16,4.8c0.2,1.2-0.5,2.8-3.3,3.3
			c-1.3,0.2-3-0.2-3.9-1.1c-0.5-0.4-1-1.1-0.9-2.1C7.8,4.6,8,4.3,8.3,4c0.3-0.2,0.6-0.3,1-0.3c0.5,0,0.9,0.5,0.8,1
			c0,0.3-0.3,0.6-0.6,0.5c-0.1,0-0.1,0-0.2-0.1C9.3,5.1,9.4,5,9.4,4.9c0-0.2-0.2-0.4-0.4-0.4c-0.1,0-0.2,0.1-0.3,0.1
			c-0.1,0-0.1,0.1-0.1,0.2c0,0.4,0.4,0.8,0.8,0.8c0.6,0,1.1-0.4,1.2-0.9c0.1-0.7-0.5-1.4-1.3-1.5c-0.5,0-1,0.1-1.4,0.4
			C7.6,4,7.4,4.4,7.3,4.9C7.2,5.8,7.6,6.7,8.4,7.4C9.3,8.2,10.6,8.6,11.9,8.6z M148.1,36.4c-0.3,0-0.5,0-0.8,0.1
			c-2.4,0.4-3.5,1.6-3.7,2.9H16.2c-0.2-1.3-1.3-2.5-3.7-2.9c-0.3,0-0.5-0.1-0.8-0.1c-1.3,0-2.6,0.5-3.5,1.2
			c-0.8,0.7-1.2,1.5-1.1,2.5c0,0.5,0.3,0.9,0.7,1.2c0.4,0.3,0.9,0.5,1.4,0.4c0.8-0.1,1.3-0.7,1.3-1.5c-0.1-0.6-0.6-1-1.2-0.9
			c-0.5,0-0.8,0.4-0.8,0.8c0,0.1,0.1,0.1,0.1,0.2c0.1,0.1,0.2,0.1,0.3,0.1c0.2,0,0.4-0.2,0.4-0.4c0-0.1-0.1-0.2-0.1-0.3
			c0.1,0,0.1-0.1,0.2-0.1c0.3,0,0.6,0.2,0.6,0.5c0,0.5-0.3,0.9-0.8,1c-0.4,0-0.7-0.1-1-0.3c-0.3-0.2-0.5-0.6-0.5-0.9
			c-0.1-1,0.5-1.7,0.9-2.1c1-0.9,2.6-1.3,3.9-1.1c2.8,0.4,3.5,2,3.3,3.3c-0.2,0.9-0.9,1.9-2.1,1.7c-0.7-0.1-1.1-0.7-1.2-1.1
			c-0.1-0.3,0-0.7,0.2-0.9c0.1,0.1,0.2,0.1,0.2,0.1c0.2,0,0.4-0.2,0.4-0.4c0-0.2-0.1-0.3-0.3-0.3c-0.1,0-0.2-0.1-0.2,0
			c-0.6,0.3-0.9,1-0.7,1.7c0.2,0.8,0.8,1.4,1.6,1.5c1.3,0.2,2.4-0.7,2.6-2.1c0-0.1,0-0.3,0-0.4h127.3c0,0.1,0,0.3,0,0.4
			c0.2,1.4,1.3,2.3,2.6,2.1c0.8-0.1,1.4-0.7,1.6-1.5c0.1-0.7-0.1-1.3-0.7-1.7c-0.1,0-0.2,0-0.2,0c-0.2,0-0.3,0.2-0.3,0.3
			c0,0.2,0.2,0.4,0.4,0.4c0.1,0,0.2,0,0.2-0.1c0.2,0.3,0.3,0.6,0.2,0.9c-0.1,0.5-0.5,1-1.2,1.1c-1.2,0.1-1.9-0.8-2.1-1.7
			c-0.2-1.2,0.5-2.8,3.3-3.3c1.3-0.2,3,0.2,3.9,1.1c0.5,0.4,1,1.1,0.9,2.1c0,0.4-0.2,0.7-0.5,0.9c-0.3,0.2-0.6,0.3-1,0.3
			c-0.5,0-0.9-0.5-0.8-1c0-0.3,0.3-0.6,0.6-0.5c0.1,0,0.1,0,0.2,0.1c-0.1,0.1-0.1,0.2-0.1,0.3c0,0.2,0.2,0.4,0.4,0.4
			c0.1,0,0.2-0.1,0.3-0.1c0.1,0,0.1-0.1,0.1-0.2c0-0.4-0.4-0.8-0.8-0.8c-0.6,0-1.1,0.4-1.2,0.9c-0.1,0.7,0.5,1.4,1.3,1.5
			c0.5,0,1-0.1,1.4-0.4c0.4-0.3,0.6-0.7,0.7-1.2c0.1-0.9-0.3-1.8-1.1-2.5C150.7,36.8,149.4,36.4,148.1,36.4z"/>
	</g>
</g>
</svg>
