<svg xmlns="http://www.w3.org/2000/svg" width="20" height="20" viewBox="0 0 20 20">
    <g fill="none" fill-rule="evenodd">
        <g fill="#F34F59" fill-rule="nonzero">
            <g>
                <g>
                    <g>
                        <g>
                            <path d="M10.198 1c-.17.003-.332.07-.453.19L1.608 9.32c-.812.812-.81 2.148.002 2.96l6.161 6.16c.977.825 2.177.683 2.901-.064l8.137-8.129c.134-.133.203-.318.19-.507l-.51-7.623c-.01-.155-.074-.301-.182-.413-.113-.115-.265-.185-.426-.195L10.253 1h-.055zm2.554 3.787c1.35 0 2.456 1.106 2.456 2.455s-1.105 2.456-2.455 2.456-2.46-1.108-2.46-2.456c0-1.35 1.109-2.455 2.459-2.455zm0 1.308c-.641 0-1.149.505-1.149 1.147 0 .641.508 1.148 1.15 1.149.642 0 1.147-.508 1.147-1.15 0-.64-.505-1.146-1.147-1.146z" transform="translate(-43.000000, -1148.000000) translate(0.000000, 967.000000) translate(0.000000, 84.000000) translate(0.000000, 10.000000) translate(43.000000, 87.000000)"/>
                        </g>
                    </g>
                </g>
            </g>
        </g>
    </g>
</svg>
