<svg width="20" height="20" xmlns="http://www.w3.org/2000/svg">
    <path d="M10.198 1a.656.656 0 0 0-.453.19L1.608 9.32a2.101 2.101 0 0 0 .002 2.96l6.161 6.16c.977.825 2.177.683 2.901-.064l8.137-8.129A.654.654 0 0 0 19 9.74l-.51-7.623a.654.654 0 0 0-.608-.608L10.253 1a.707.707 0 0 0-.055 0zm2.554 3.787a2.465 2.465 0 0 1 2.456 2.455 2.464 2.464 0 0 1-2.455 2.456 2.468 2.468 0 0 1-2.46-2.456 2.466 2.466 0 0 1 2.459-2.455zm0 1.308c-.641 0-1.149.505-1.149 1.147a1.14 1.14 0 0 0 1.15 1.149c.642 0 1.147-.508 1.147-1.15 0-.64-.505-1.146-1.147-1.146z" fill="#60BA9A" fill-rule="nonzero"/>
</svg>
