<svg width="24" height="24" viewBox="0 0 24 24" xmlns="http://www.w3.org/2000/svg" xmlns:xlink="http://www.w3.org/1999/xlink">
    <defs>
        <path id="a" d="M0 0h24v24H0z"/>
    </defs>
    <g fill="none" fill-rule="evenodd">
        <g>
            <mask id="b" fill="#fff">
                <use xlink:href="#a"/>
            </mask>
            <path d="M18.8 24H5.2A5.2 5.2 0 0 1 0 18.8V5.2A5.2 5.2 0 0 1 5.2 0h13.6A5.2 5.2 0 0 1 24 5.2v13.6a5.2 5.2 0 0 1-5.2 5.2" fill="#00B900" mask="url(#b)"/>
        </g>
        <path d="M20.7 10.945c0-3.91-3.92-7.091-8.739-7.091-4.818 0-8.738 3.18-8.738 7.09 0 3.506 3.108 6.442 7.308 6.997.284.061.672.187.77.43.088.222.057.568.028.79l-.125.749c-.038.22-.176.864.757.47.933-.392 5.032-2.962 6.866-5.072 1.266-1.39 1.872-2.799 1.872-4.363" fill="#FFF"/>
        <path d="M10.186 9.055h-.613a.17.17 0 0 0-.17.17v3.808c0 .093.076.17.17.17h.613a.17.17 0 0 0 .17-.17V9.225a.17.17 0 0 0-.17-.17M14.404 9.055h-.612a.17.17 0 0 0-.17.17v2.262l-1.746-2.356a.186.186 0 0 0-.013-.017v-.001a.173.173 0 0 0-.011-.011l-.003-.003-.01-.007a.139.139 0 0 0-.013-.01l-.005-.003a.208.208 0 0 0-.009-.005l-.005-.003-.01-.004a.059.059 0 0 0-.005-.002l-.01-.003-.007-.002a.083.083 0 0 0-.016-.003l-.01-.001h-.627a.17.17 0 0 0-.17.17v3.807c0 .093.076.17.17.17h.613a.17.17 0 0 0 .17-.17V10.77l1.747 2.36a.172.172 0 0 0 .043.042l.002.001a.113.113 0 0 0 .015.009.343.343 0 0 0 .016.007l.006.002.011.004h.003a.172.172 0 0 0 .044.006h.612a.17.17 0 0 0 .17-.17V9.226a.17.17 0 0 0-.17-.17M8.708 12.249H7.043V9.225a.17.17 0 0 0-.17-.17H6.26a.17.17 0 0 0-.17.17v3.807a.168.168 0 0 0 .052.123.17.17 0 0 0 .117.048h2.45a.17.17 0 0 0 .17-.17v-.614a.17.17 0 0 0-.17-.17M17.79 10.009a.17.17 0 0 0 .17-.17v-.613a.17.17 0 0 0-.17-.17h-2.45a.169.169 0 0 0-.118.047l-.002.002-.002.003a.169.169 0 0 0-.048.117v3.807a.168.168 0 0 0 .05.12l.003.003c.03.03.072.048.117.048h2.45a.17.17 0 0 0 .17-.17v-.614a.17.17 0 0 0-.17-.17h-1.666v-.644h1.665a.17.17 0 0 0 .17-.17v-.613a.17.17 0 0 0-.17-.17h-1.665v-.643h1.665z" fill="#00B900"/>
    </g>
</svg>
