<svg xmlns="http://www.w3.org/2000/svg" width="25" height="25"><g fill="none" fill-rule="evenodd" stroke="#ADADAD"><path stroke-width="1.5" d="M15.254 14.863H8.7l-3.416 3.431a.468.468 0 01-.799-.332v-3.099h-.936a1.408 1.408 0 01-1.405-1.411v-8.47c0-.779.629-1.41 1.405-1.41h11.706c.776 0 1.405.631 1.405 1.41v8.47c0 .78-.629 1.411-1.405 1.411z"/><path stroke-width="1.5" d="M17.994 7.373h4.183c.77 0 1.394.632 1.394 1.412v8.469c0 .78-.624 1.411-1.394 1.411h-1.86v3.099c0 .419-.5.629-.793.332l-3.39-3.431h-4.647c-.77 0-1.395-.632-1.395-1.411v-.941"/><path stroke-width="2" d="M6.29 9.62h1.383m1.037 0h1.382m1.037 0h1.383"/></g></svg>