<svg xmlns="http://www.w3.org/2000/svg" width="20" height="20" viewBox="0 0 20 20">
    <g fill="#64C814" fill-rule="nonzero">
        <path d="M17.02 3.506h-1.276a.557.557 0 1 1 0-1.113h1.833c.307 0 .556.249.556.556V18.8c0 .307-.25.557-.556.557H2.004a.557.557 0 0 1-.557-.557V2.95c0-.308.25-.557.557-.557h1.832a.557.557 0 1 1 0 1.113H2.56v14.738h14.46V3.506z"/>
        <path d="M13.356 2.95c0-.602-.56-1.113-1.276-1.113H7.5c-.715 0-1.276.51-1.276 1.112v1.112h7.132V2.95zm.556 2.224H5.668a.557.557 0 0 1-.557-.556V2.949C5.111 1.71 6.192.724 7.5.724h4.58c1.308 0 2.389.985 2.389 2.225v1.669c0 .307-.25.556-.557.556zM5.668 9.405a.557.557 0 0 1 0-1.113h8.244a.557.557 0 1 1 0 1.113H5.668zM5.668 12.983a.557.557 0 0 1 0-1.113h8.244a.557.557 0 1 1 0 1.113H5.668z"/>
    </g>
</svg>
