<svg width="24" height="24" viewBox="0 0 24 24" xmlns="http://www.w3.org/2000/svg">
    <g fill-rule="nonzero" fill="none">
        <rect stroke="#EAEAEA" fill="#FFF" x=".5" y=".5" width="23" height="23" rx="5"/>
        <path d="M12.114 16.353a6.132 6.132 0 0 1-2.174-.395c-1.073-.41-2.5-1.35-3.235-3.453l-.07-.205 10.876-3.762.07.205a6.85 6.85 0 0 1 .056 3.495c-.466 1.85-1.678 3.137-3.604 3.803a5.94 5.94 0 0 1-1.919.312m8.444-8.726-.502-1.6C19.85 5.353 19.437 5 18.846 5c-.24.005-.478.05-.704.131L4.065 10.014c-.495.172-.825.42-.967.74a1.429 1.429 0 0 0 .043 1.132l.602 1.563c1.252 3.262 3.408 4.689 4.996 5.311a9.62 9.62 0 0 0 3.458.64 8.798 8.798 0 0 0 2.867-.463c4.578-1.585 6.989-6.551 5.494-11.31" fill="#F5281E"/>
    </g>
</svg>
