<svg xmlns="http://www.w3.org/2000/svg" width="20" height="20" viewBox="0 0 20 20">
    <g fill="none" fill-rule="evenodd">
        <g fill="#3C3C3C" fill-rule="nonzero">
            <g>
                <g>
                    <g>
                        <path d="M12.5 3.333c.427 0 .78.322.828.736l.005.098v2.5h2.21c.158 0 .311.05.44.144l.075.062 2.009 1.875c.145.135.237.323.26.525l.006.102V12.5c0 .427-.301.78-.69.828l-.09.005h-1.345c.16.312.25.667.25 1.042 0 1.266-1.026 2.292-2.291 2.292-1.266 0-2.292-1.026-2.292-2.292 0-.375.09-.729.25-1.041h-4.25c.16.312.25.666.25 1.041 0 1.266-1.026 2.292-2.292 2.292-1.265 0-2.291-1.026-2.291-2.292 0-.375.09-.729.25-1.041H2.5c-.427 0-.78-.322-.828-.737l-.005-.097V4.167c0-.428.321-.78.736-.828l.097-.006h10zm-6.667 10c-.575 0-1.041.467-1.041 1.042s.466 1.042 1.041 1.042c.576 0 1.042-.467 1.042-1.042s-.466-1.042-1.042-1.042zm8.334 0c-.576 0-1.042.467-1.042 1.042s.466 1.042 1.042 1.042c.575 0 1.041-.467 1.041-1.042s-.466-1.042-1.041-1.042zm-2.084-8.75H2.917v7.5h9.166v-7.5zm3.26 3.334h-2.01v4.166h3.75V9.54l-1.74-1.623z" transform="translate(-140 -542) translate(120 254) translate(0 278) translate(20 10)"/>
                    </g>
                </g>
            </g>
        </g>
    </g>
</svg>
