<svg width="24" height="24" viewBox="0 0 24 24" fill="none" xmlns="http://www.w3.org/2000/svg">
<path d="M6.58008 19.4601L7.26008 16.2401L15.0401 8.50012L20.5601 9.12012L16.2401 13.4801L17.4801 19.4601L11.9601 16.5801L6.58008 19.4601Z" fill="#F2F2F2"/>
<path fill-rule="evenodd" clip-rule="evenodd" d="M12.0003 3.91801L10.1057 8.16836C9.89642 8.63784 9.45276 8.96018 8.94159 9.01413L4.3138 9.50257L7.77066 12.6179C8.1525 12.962 8.32196 13.4835 8.21531 13.9864L7.24978 18.5386L11.2808 16.2136C11.7261 15.9568 12.2745 15.9568 12.7197 16.2136L16.7508 18.5386L15.7853 13.9864C15.6786 13.4835 15.8481 12.962 16.2299 12.6179L19.6868 9.50257L15.059 9.01413C14.5478 8.96018 14.1042 8.63784 13.8949 8.16836L12.0003 3.91801ZM12.4387 2.54361C12.2696 2.16418 11.731 2.16417 11.5619 2.54361L9.22886 7.77751C9.1591 7.93401 9.01122 8.04145 8.84083 8.05943L3.14215 8.6609C2.72902 8.7045 2.56259 9.21671 2.87119 9.49481L7.12799 13.331C7.25527 13.4457 7.31175 13.6196 7.2762 13.7872L6.08724 19.3928C6.00105 19.7992 6.43676 20.1157 6.79661 19.9082L11.7605 17.0452C11.9089 16.9596 12.0917 16.9596 12.2401 17.0452L17.204 19.9082C17.5638 20.1157 17.9995 19.7992 17.9133 19.3928L16.7244 13.7872C16.6888 13.6196 16.7453 13.4457 16.8726 13.331L21.1294 9.49481C21.438 9.21671 21.2716 8.7045 20.8584 8.6609L15.1598 8.05943C14.9894 8.04145 14.8415 7.93401 14.7717 7.77751L12.4387 2.54361Z" fill="#0090EB" stroke="#0090EB" stroke-width="0.5"/>
</svg>
