<svg xmlns="http://www.w3.org/2000/svg" xmlns:xlink="http://www.w3.org/1999/xlink" width="90" height="25" viewBox="0 0 90 25">
    <defs>
        <path id="a" d="M.136.2h6.899v8.097H.136z"/>
    </defs>
    <g fill="none" fill-rule="evenodd">
        <path fill="#E50113" d="M32.868 17.16c-.304-.996-1.22-1.352-1.22-1.352-.166-.11-2.355-.774-2.355-.774-.618-.22-.578-.833-.578-.833-.044-.446.578-.677.578-.677s.915-.246 1.488.157c0 0 .472.288.825.959 0 0 .26.582.638.582 0 0 .397.038.586-.394l.038-.216v-1.83s-.118-.424-.587-.432c-.307.03-.555.317-.555.317-.312.065-.583-.146-.583-.146-.828-.4-1.752-.367-1.752-.367-1.5-.05-2.032.79-2.032.79-.631.708-.394 2.108-.394 2.108.125.99 1.555 1.573 1.555 1.573.09.063 2.224.735 2.224.735.083.022.29.133.394.281.15.216.188.493.188.493-.011 1.24-1.525 1.009-1.525 1.009-.9-.056-1.461-1.019-1.461-1.019l-.227-.528c-.072-.482-.569-.437-.569-.437-.713.054-.653.646-.653.646v1.912l.024.092c.509.964 1.12.127 1.12.127.252-.25.455 0 .455 0 .258.203 1.119.457 1.119.457 1.218.205 2.038-.151 2.038-.151.984-.549 1.22-1.38 1.22-1.38.215-.893 0-1.703 0-1.703M37.267 19.225c-.928 0-1.676-1.279-1.676-2.858 0-1.576.748-2.857 1.676-2.857.926 0 1.675 1.28 1.675 2.857 0 1.58-.749 2.858-1.675 2.858m0-6.907c-1.907 0-3.451 1.813-3.451 4.049 0 2.236 1.544 4.047 3.451 4.047 1.906 0 3.451-1.81 3.451-4.047 0-2.236-1.545-4.05-3.45-4.05"/>
        <g transform="translate(48.585 12.117)">
            <mask id="b" fill="#fff">
                <use xlink:href="#a"/>
            </mask>
            <path fill="#E50113" d="M3.585 7.108c-.925 0-1.677-1.279-1.677-2.858 0-1.576.752-2.857 1.677-2.857.93 0 1.68 1.28 1.68 2.857 0 1.58-.75 2.858-1.68 2.858m0-6.907C1.681.2.136 2.015.136 4.25c0 2.237 1.545 4.047 3.45 4.047 1.903 0 3.45-1.81 3.45-4.047C7.035 2.015 5.488.2 3.585.2" mask="url(#b)"/>
        </g>
        <path fill="#E50113" d="M48.17 16.706c-.132-.539-.778-.462-.778-.462H45.68c-.4.02-.543.25-.543.25-.22.866.267.809.267.809.448.036.467.325.467.325.154.484-.099.866-.099.866-.14.247-.388.444-.64.502-.407.088-.827-.07-.827-.07-.98-.27-1.124-2.155-1.124-2.155-.066-.49-.02-1.232-.02-1.232.049-1.061.652-1.669.652-1.669 1.218-1.121 1.924.218 1.924.218.18.248.55 1.27.55 1.27.161.426.575.389.575.389.383.02.53-.42.53-.42v-2.614c-.13-.372-.495-.363-.495-.363-.406-.053-.61.267-.61.267-.093.09-.199.022-.294-.038-.122-.08-.227-.169-.227-.169-.517-.306-1.118-.249-1.118-.249a3.203 3.203 0 0 0-2.059.687s-1.422.846-1.353 4.225c.027 1.336.937 2.349.937 2.349.26.31.636.603.992.75.551.232 1.063.22 1.063.22 1.091.057 1.614-.32 1.614-.32.341-.232.445.03.445.03.149.233.46.186.46.186.592.039.631-.536.631-.536v-2.03c.019-.23.15-.259.15-.259l.294-.17c.461-.239.348-.587.348-.587M39.554 10.297l-.001.662s-2.756-.007-3.689-.007c-.819 0-1.419-.175-1.837-.606-.405.345-.74.552-1.125.625v-.65c.355-.162.685-.505.685-1.046V8.103c0-.058-.028-.083-.097-.083h-.584v-.65h1.05c.197 0 .418.065.418.373v1.56c0 .69.928.972 1.53.972.601 0 3.65.022 3.65.022zm-2.648-1.375v1.215h-.879V9.048c-.388.23-.88.43-1.243.531v-.686c.498-.131 1.191-.476 1.47-.81h-1.285c-.059 0-.09-.033-.09-.09V6.66c0-.056.031-.088.09-.088h3.975c.103 0 .124.039.124.092v1.33c0 .056-.036.09-.095.09H38.8l.427.403c-.18.206-.478.448-.736.64.129.068.512.266.789.3l-.005.617c-.723-.088-1.858-.598-2.352-1.122h-.017zm.29-.757c.146.22.444.449.671.565.316-.177.626-.468.794-.646h-1.4l-.065.08zm-4.275-2.853l-.01-.622c.329.026.977.154 1.402.344v.731c-.37-.224-1.043-.407-1.392-.453zm0 1.243l-.01-.626a5.1 5.1 0 0 1 1.402.344v.734c-.37-.227-1.043-.403-1.392-.452zm3.611-.831v-.36H34.87v-.601h1.663v-.38h.858v.38h1.747v.601H37.39v.36h1.984v.616H34.63v-.616h1.901zm1.707 1.408h-2.543a.021.021 0 0 0-.02.03v.323c-.005.02.005.035.02.036h2.543c.022 0 .031-.016.031-.036v-.323c0-.014-.01-.03-.031-.03zM46.71 8.938v2.01h-.946V8.943c-.687 1.052-2.389 1.786-2.791 1.911l-.002-.738c.627-.274 1.56-.874 1.907-1.432h-1.52c-.069 0-.102-.038-.102-.106v-2.67c.004-.064.04-.102.103-.102h2.383v-.39h-2.806v-.642h2.806v-.392h.985v.392h2.82v.643h-2.82v.39h2.402c.079.007.112.037.112.101v2.67c0 .068-.033.106-.112.106h-1.552c.369.558 1.329 1.17 1.907 1.423v.747c-.746-.163-2.376-1.21-2.773-1.917zm-.968-2.005v-.457h-1.587c-.023 0-.032.012-.028.032v.425h1.615zm0 1.097v-.445h-1.615v.406c0 .022.011.036.028.04h1.587zm.985-1.554v.457h1.642v-.425c-.003-.02-.017-.032-.033-.032h-1.61zm0 1.109v.445h1.61c.02-.003.032-.017.032-.039v-.406h-1.642zM13.479 10.29l-1.016-1.683h2.008l-.992 1.682zm-1.016 5.956l.993-1.683 1.015 1.683h-2.008zm2.467-3.836l3.734-6.202.042-.067H8.228l.053.092 3.685 6.177-3.7 6.169-.038.062h10.478l-.028-.041-3.748-6.19z"/>
        <path fill="#E50113" d="M18.818 18.418l-.036.041h-.01a8.005 8.005 0 0 1-5.334 2.022 8.001 8.001 0 0 1-5.332-2.022l-.034-.028-.04-.035a8.024 8.024 0 0 1-2.638-5.96 8.023 8.023 0 0 1 2.653-5.97l.017-.019.084-.07a8.014 8.014 0 0 1 5.29-1.986c2.025 0 3.876.75 5.292 1.986l.064.053.01.013a8.03 8.03 0 0 1 2.677 5.994 8.033 8.033 0 0 1-2.663 5.98M13.438 2C7.675 2 3 6.674 3 12.437c0 5.762 4.675 10.436 10.438 10.436 5.763 0 10.435-4.674 10.435-10.436C23.873 6.674 19.2 2 13.438 2"/>
    </g>
</svg>
