<?xml version="1.0" encoding="UTF-8"?>
<svg width="75px" height="9px" viewBox="0 0 75 9" version="1.1" xmlns="http://www.w3.org/2000/svg" xmlns:xlink="http://www.w3.org/1999/xlink">
    <!-- Generator: Sketch 57.1 (83088) - https://sketch.com -->
    <title>app_status/status_null_process</title>
    <desc>Created with Sketch.</desc>
    <g id="app_status/status_null_process" stroke="none" stroke-width="1" fill="none" fill-rule="evenodd">
        <g id="status_null_process" fill="#ADADAD" fill-rule="nonzero">
            <g id="Element/status/horizontal_line/line_solid" transform="translate(42.000000, 0.000000)">
                <polygon id="Line" points="0 5 0 4 33 4 33 5"></polygon>
            </g>
            <g id="Element/status/horizontal_line/line_solid">
                <polygon id="Line" points="0 5 0 4 33 4 33 5"></polygon>
            </g>
            <g id="Element/status_bar/dote_undone" transform="translate(33.000000, 0.000000)">
                <path d="M4.5,9 C6.98528137,9 9,6.98528137 9,4.5 C9,2.01471863 6.98528137,0 4.5,0 C2.01471863,0 0,2.01471863 0,4.5 C0,6.98528137 2.01471863,9 4.5,9 Z M4.5,8 C2.56700338,8 1,6.43299662 1,4.5 C1,2.56700338 2.56700338,1 4.5,1 C6.43299662,1 8,2.56700338 8,4.5 C8,6.43299662 6.43299662,8 4.5,8 Z" id="Oval-2"></path>
            </g>
        </g>
    </g>
</svg>