<svg width="30" height="30" xmlns="http://www.w3.org/2000/svg">
    <path d="M21.723 5.422c2.31.458 4.184 2.282 4.697 4.564.378 1.647.055 3.292-.9 4.69l-.07.095-.055.106-.069.094a.636.636 0 0 1-.882.124.61.61 0 0 1-.248-.534l.027-.16a.63.63 0 0 1 .056-.13l.06-.091c.866-1.144 1.177-2.526.855-3.926a4.822 4.822 0 0 0-3.718-3.624c-3.053-.598-5.848 1.657-5.848 4.691 0 .822-1.256.822-1.256 0 0-3.034-2.795-5.29-5.845-4.692a4.825 4.825 0 0 0-3.723 3.63c-.299 1.302-.048 2.595.703 3.707l.16.224.044.067 8.929 10.3c.146.167.39.207.581.109l.093-.065 1.605-1.849a.636.636 0 0 1 .888-.069.608.608 0 0 1 .125.792l-.069.091-1.552 1.795c-.646.74-1.801.789-2.512.114l-.124-.129L4.67 14.963l-.065-.087-.04-.08-.09-.127c-.887-1.3-1.23-2.826-.96-4.365l.066-.32c.513-2.28 2.387-4.104 4.7-4.563 2.466-.483 4.89.518 6.264 2.469l.115.17.339.54.341-.539c1.348-2.062 3.843-3.137 6.384-2.64zm-.752 9.632c.315 0 .58.234.622.543l.007.105-.001 2.338h2.358a.628.628 0 0 1 .085 1.25l-.106.007-2.337-.001v2.358a.628.628 0 0 1-1.25.085l-.007-.106v-2.337h-2.357a.628.628 0 0 1-.085-1.25l.105-.007h2.338v-2.357c0-.347.281-.628.628-.628z" fill="#3C3C3C" fill-rule="nonzero"/>
</svg>
