<svg width="30" height="30" xmlns="http://www.w3.org/2000/svg">
    <path d="M8.151 5.126C5.753 5.6 3.813 7.496 3.28 9.87l-.059.291c-.291 1.649.089 3.255 1.02 4.6l.055.077.01.025c.03.06.066.117.113.17l9.162 10.571c.746.861 2.092.861 2.838 0l9.162-10.57.063-.084a.748.748 0 0 0 .05-.087l.009-.025-.113.158c1.112-1.468 1.545-3.279 1.13-5.126-.533-2.374-2.473-4.27-4.871-4.744l-.225-.04c-2.77-.45-5.336.907-6.585 3.117l-.04.07-.038-.07c-1.283-2.27-3.954-3.64-6.81-3.077z" fill="#F34F59" fill-rule="nonzero"/>
</svg>
